<svg version="1.1" xmlns="http://www.w3.org/2000/svg" viewBox="0 0 1387.2363481542538 996.0596796423661" width="1387.2363481542538" height="996.0596796423661">
  <!-- svg-source:excalidraw -->
  
  <defs>
    <style class="style-fonts">
      @font-face {
        font-family: "Virgil";
        src: url("https://excalidraw.com/Virgil.woff2");
      }
      @font-face {
        font-family: "Cascadia";
        src: url("https://excalidraw.com/Cascadia.woff2");
      }
      @font-face {
        font-family: "Assistant";
        src: url("https://excalidraw.com/Assistant-Regular.woff2");
      }
    </style>
    
  </defs>
  <rect x="0" y="0" width="1387.2363481542538" height="996.0596796423661" fill="#ffffff"></rect><g stroke-linecap="round" transform="translate(10 37.727525220783434) rotate(0 77.5 17.5)"><path d="M8.75 0 C49.29 -1.54, 87.77 1.56, 146.25 0 M8.75 0 C44.99 0.66, 80.4 0.56, 146.25 0 M146.25 0 C153.92 0.19, 156.21 2.82, 155 8.75 M146.25 0 C150.45 0.97, 154.22 4.5, 155 8.75 M155 8.75 C155.06 14.23, 153.69 18.03, 155 26.25 M155 8.75 C155.92 13.31, 155.7 17.16, 155 26.25 M155 26.25 C153.15 33.92, 152.12 33.48, 146.25 35 M155 26.25 C154.31 32.01, 152.53 33.8, 146.25 35 M146.25 35 C116.88 33.05, 87.8 35.13, 8.75 35 M146.25 35 C91.57 33.54, 37.45 33.12, 8.75 35 M8.75 35 C1.55 35.59, -0.14 33.26, 0 26.25 M8.75 35 C1.37 37.26, -0.98 33.02, 0 26.25 M0 26.25 C-0.03 22.03, -1.72 13.93, 0 8.75 M0 26.25 C0.47 21.95, 0.05 16.88, 0 8.75 M0 8.75 C-1.01 2.76, 2.53 0.33, 8.75 0 M0 8.75 C0.22 1.11, 0.8 -0.11, 8.75 0" stroke="#1e1e1e" stroke-width="2" fill="none"></path></g><g transform="translate(53.950035095214844 42.727525220783434) rotate(0 33.549964904785156 12.5)"><text x="33.549964904785156" y="0" font-family="Virgil, Segoe UI Emoji" font-size="20px" fill="#1e1e1e" text-anchor="middle" style="white-space: pre;" direction="ltr" dominant-baseline="text-before-edge">Label 1</text></g><g stroke-linecap="round" transform="translate(14.5 256.22752522078343) rotate(0 77.5 17.5)"><path d="M8.75 0 C38.2 -1.8, 68.72 -2.18, 146.25 0 M8.75 0 C37.13 0.37, 65.05 0.23, 146.25 0 M146.25 0 C150.58 -0.58, 153.93 4.41, 155 8.75 M146.25 0 C152.58 1.15, 156.27 5.2, 155 8.75 M155 8.75 C154.6 12.23, 156.34 18.41, 155 26.25 M155 8.75 C155.14 14.97, 154.67 20.84, 155 26.25 M155 26.25 C156.95 32.89, 152.28 34.43, 146.25 35 M155 26.25 C154.51 32.81, 150.59 36.24, 146.25 35 M146.25 35 C100.69 34.54, 57.45 32.84, 8.75 35 M146.25 35 C98.53 33.4, 49.34 33.88, 8.75 35 M8.75 35 C1.01 34.91, 1.52 31.03, 0 26.25 M8.75 35 C5.19 33, -0.19 34.25, 0 26.25 M0 26.25 C-0.37 22.52, 1.4 17.95, 0 8.75 M0 26.25 C0.5 20.32, 1 13.49, 0 8.75 M0 8.75 C1.16 1.66, 2.99 -0.74, 8.75 0 M0 8.75 C1.73 3.52, 3.87 0.8, 8.75 0" stroke="#1e1e1e" stroke-width="2" fill="none"></path></g><g transform="translate(58.450035095214844 261.22752522078343) rotate(0 33.549964904785156 12.5)"><text x="33.549964904785156" y="0" font-family="Virgil, Segoe UI Emoji" font-size="20px" fill="#1e1e1e" text-anchor="middle" style="white-space: pre;" direction="ltr" dominant-baseline="text-before-edge">Label 1</text></g><g stroke-linecap="round" transform="translate(14.5 76.22752522078343) rotate(0 77.5 17.5)"><path d="M8.75 0 C36.93 0.92, 64.21 0.64, 146.25 0 M8.75 0 C40.44 0.95, 71.14 1.29, 146.25 0 M146.25 0 C154.07 -0.44, 154.35 1.11, 155 8.75 M146.25 0 C151.63 -1.82, 156.84 2.81, 155 8.75 M155 8.75 C155.29 14.81, 154.35 20.16, 155 26.25 M155 8.75 C154.82 15.52, 155.35 22.1, 155 26.25 M155 26.25 C156.08 32.52, 152.63 34.18, 146.25 35 M155 26.25 C153.46 32.2, 151.67 33.17, 146.25 35 M146.25 35 C99.3 32.78, 49.4 33.73, 8.75 35 M146.25 35 C117.59 37.03, 89.1 35.96, 8.75 35 M8.75 35 C4.8 34.46, 1.2 32.61, 0 26.25 M8.75 35 C2.57 36.39, 1.98 33.74, 0 26.25 M0 26.25 C0.85 20.7, 1.84 13.35, 0 8.75 M0 26.25 C-0.22 20.65, 0.34 14.09, 0 8.75 M0 8.75 C0.69 4.09, 4.44 0.71, 8.75 0 M0 8.75 C1.29 2.78, 1.41 0.73, 8.75 0" stroke="#1e1e1e" stroke-width="2" fill="none"></path></g><g transform="translate(58.450035095214844 81.22752522078343) rotate(0 33.549964904785156 12.5)"><text x="33.549964904785156" y="0" font-family="Virgil, Segoe UI Emoji" font-size="20px" fill="#1e1e1e" text-anchor="middle" style="white-space: pre;" direction="ltr" dominant-baseline="text-before-edge">Label 1</text></g><g stroke-linecap="round" transform="translate(10.5 202.22752522078343) rotate(0 77.5 17.5)"><path d="M8.75 0 C41.19 1.17, 71.64 1.84, 146.25 0 M8.75 0 C62.73 0.25, 117.73 1.25, 146.25 0 M146.25 0 C151.99 1.3, 154.89 3.42, 155 8.75 M146.25 0 C152.48 -0.42, 154.16 1.13, 155 8.75 M155 8.75 C154.57 15.34, 155.62 21.53, 155 26.25 M155 8.75 C154.68 14.36, 155.08 20.98, 155 26.25 M155 26.25 C153.41 33.14, 150.64 33.58, 146.25 35 M155 26.25 C156.77 30.66, 152.22 34.66, 146.25 35 M146.25 35 C117.06 38.02, 88.23 35.88, 8.75 35 M146.25 35 C92.32 35.67, 38.47 36.68, 8.75 35 M8.75 35 C4.36 36.21, -1.78 30.55, 0 26.25 M8.75 35 C3.83 36, 2.21 31.72, 0 26.25 M0 26.25 C-0.54 21.31, 0.57 14.45, 0 8.75 M0 26.25 C0.21 20.88, -0.16 13.97, 0 8.75 M0 8.75 C0.63 2.21, 4.62 -1.4, 8.75 0 M0 8.75 C2.13 2.46, 1.89 1.64, 8.75 0" stroke="#1e1e1e" stroke-width="2" fill="none"></path></g><g transform="translate(54.450035095214844 207.22752522078343) rotate(0 33.549964904785156 12.5)"><text x="33.549964904785156" y="0" font-family="Virgil, Segoe UI Emoji" font-size="20px" fill="#1e1e1e" text-anchor="middle" style="white-space: pre;" direction="ltr" dominant-baseline="text-before-edge">Label 1</text></g><g stroke-linecap="round"><g transform="translate(513 10.727525220783434) rotate(0 -0.5 51)"><path d="M-0.39 0.21 C-0.56 17.23, -0.58 84.79, -0.82 101.94 M1.61 -0.73 C1.28 16.51, -1.51 86.43, -1.67 103.45" stroke="#1e1e1e" stroke-width="2" fill="none"></path></g></g><mask></mask><g stroke-linecap="round"><g transform="translate(520 90.72752522078343) rotate(0 0 0)"><path d="M0.08 0.28 C0.17 0.24, 0.24 -0.2, 0.27 -0.21 M-0.31 0.12 C-0.21 0.12, 0.05 0.22, 0.13 0.14" stroke="#6741d9" stroke-width="2" fill="none"></path></g></g><mask></mask><g transform="translate(514 52.727525220783434) rotate(0 13.109992980957031 25)"><text x="0" y="0" font-family="Virgil, Segoe UI Emoji" font-size="20px" fill="#6741d9" text-anchor="start" style="white-space: pre;" direction="ltr" dominant-baseline="text-before-edge">MI</text><text x="0" y="25" font-family="Virgil, Segoe UI Emoji" font-size="20px" fill="#6741d9" text-anchor="start" style="white-space: pre;" direction="ltr" dominant-baseline="text-before-edge"></text></g><g stroke-linecap="round"><g transform="translate(508.0307306269092 180.3656167481281) rotate(0 -0.5 51)"><path d="M-1.04 -0.51 C-1.21 16.4, -1.04 84.01, -1 100.99 M0.61 -1.82 C0.29 15.25, -1.61 84.64, -1.95 101.99" stroke="#1e1e1e" stroke-width="2" fill="none"></path></g></g><mask></mask><g transform="translate(507 208.72752522078343) rotate(0 17.279983520507812 12.5)"><text x="0" y="0" font-family="Virgil, Segoe UI Emoji" font-size="20px" fill="#6741d9" text-anchor="start" style="white-space: pre;" direction="ltr" dominant-baseline="text-before-edge">HYP</text></g><g stroke-linecap="round" transform="translate(14.710834356918895 421.5035573097784) rotate(0 77.5 17.5)"><path d="M8.75 0 C60.58 -1.77, 110.86 -2.35, 146.25 0 M8.75 0 C50.3 0.99, 90.19 0.32, 146.25 0 M146.25 0 C153.3 -1.16, 154.24 1.47, 155 8.75 M146.25 0 C152.02 -2.17, 157.23 2.57, 155 8.75 M155 8.75 C154.08 13.92, 155.11 20.17, 155 26.25 M155 8.75 C154.18 15.48, 154.85 21.44, 155 26.25 M155 26.25 C155.25 31.18, 150.75 33.98, 146.25 35 M155 26.25 C156.64 29.95, 150.97 34.72, 146.25 35 M146.25 35 C112.33 35.23, 81.27 37.37, 8.75 35 M146.25 35 C101.05 33.68, 53.71 32.82, 8.75 35 M8.75 35 C3.23 36.3, -0.5 33.27, 0 26.25 M8.75 35 C4.06 36.26, 2.2 30.34, 0 26.25 M0 26.25 C-1.52 21.73, 0.14 15.16, 0 8.75 M0 26.25 C-0.6 19.91, 0.66 14.34, 0 8.75 M0 8.75 C-0.74 2.1, 0.93 -1.68, 8.75 0 M0 8.75 C-0.46 4.46, 1.17 1.37, 8.75 0" stroke="#1e1e1e" stroke-width="2" fill="none"></path></g><g transform="translate(58.66086945213374 426.5035573097784) rotate(0 33.549964904785156 12.5)"><text x="33.549964904785156" y="0" font-family="Virgil, Segoe UI Emoji" font-size="20px" fill="#1e1e1e" text-anchor="middle" style="white-space: pre;" direction="ltr" dominant-baseline="text-before-edge">Label 1</text></g><g stroke-linecap="round" transform="translate(10.710834356918895 367.5035573097784) rotate(0 77.5 17.5)"><path d="M8.75 0 C43.57 -0.71, 77.72 2.25, 146.25 0 M8.75 0 C56.96 -0.3, 103.57 -0.44, 146.25 0 M146.25 0 C152.03 -1.89, 156.94 2.61, 155 8.75 M146.25 0 C152.61 -0.57, 155.08 1.77, 155 8.75 M155 8.75 C155.71 12.87, 156.46 16.8, 155 26.25 M155 8.75 C155.09 15.18, 154.4 21.95, 155 26.25 M155 26.25 C156.43 30.23, 151.11 34.76, 146.25 35 M155 26.25 C153.64 32.99, 154.07 34.07, 146.25 35 M146.25 35 C112.22 34.2, 74.91 37.3, 8.75 35 M146.25 35 C105.15 34.47, 63.49 34.41, 8.75 35 M8.75 35 C3.91 36.1, 1.92 30.57, 0 26.25 M8.75 35 C3.45 35.35, 0.81 30.12, 0 26.25 M0 26.25 C0.9 19.59, -1.4 12.22, 0 8.75 M0 26.25 C-0.45 20.98, -0.99 15.7, 0 8.75 M0 8.75 C-0.4 4.26, 1.39 1.19, 8.75 0 M0 8.75 C-1.76 3, 4.66 0.85, 8.75 0" stroke="#1e1e1e" stroke-width="2" fill="none"></path></g><g transform="translate(54.66086945213374 372.5035573097784) rotate(0 33.549964904785156 12.5)"><text x="33.549964904785156" y="0" font-family="Virgil, Segoe UI Emoji" font-size="20px" fill="#1e1e1e" text-anchor="middle" style="white-space: pre;" direction="ltr" dominant-baseline="text-before-edge">Label 1</text></g><g stroke-linecap="round"><g transform="translate(512.2415649838281 356.6416488371231) rotate(0 -0.5 51)"><path d="M0.73 0.55 C0.65 17.59, -1.37 84.96, -1.54 101.75 M-0.35 -0.2 C-0.54 17.06, -2.72 86.09, -2.77 103.16" stroke="#1e1e1e" stroke-width="2" fill="none"></path></g></g><mask></mask><g transform="translate(513.2108343569189 392.0035573097784) rotate(0 28.139976501464844 12.5)"><text x="0" y="0" font-family="Virgil, Segoe UI Emoji" font-size="20px" fill="#6741d9" text-anchor="start" style="white-space: pre;" direction="ltr" dominant-baseline="text-before-edge">NORM</text></g><g stroke-linecap="round" transform="translate(615.5 209.22752522078343) rotate(0 77.5 17.5)"><path d="M8.75 0 C59.5 -1.83, 107.37 0.49, 146.25 0 M8.75 0 C40.53 0.87, 71.54 0.65, 146.25 0 M146.25 0 C151.94 -1.7, 156.76 4.35, 155 8.75 M146.25 0 C151.78 0.16, 157.22 2.41, 155 8.75 M155 8.75 C154.53 15.71, 153.55 20.94, 155 26.25 M155 8.75 C155.2 15.7, 155.65 21.96, 155 26.25 M155 26.25 C155.7 32.74, 153.59 36.17, 146.25 35 M155 26.25 C157.17 32.46, 150.79 34.18, 146.25 35 M146.25 35 C94.06 36.11, 44.78 34.01, 8.75 35 M146.25 35 C94.55 34.63, 43.52 34.71, 8.75 35 M8.75 35 C3.46 33.24, -0.1 33.24, 0 26.25 M8.75 35 C4.81 35.17, -1.81 33.94, 0 26.25 M0 26.25 C1.39 21.33, -1.41 17.47, 0 8.75 M0 26.25 C0.84 20.45, 0.35 14.27, 0 8.75 M0 8.75 C-1.69 4.09, 2.23 1.99, 8.75 0 M0 8.75 C-1.08 3.35, 3.55 1.43, 8.75 0" stroke="#1e1e1e" stroke-width="2" fill="none"></path></g><g transform="translate(639.3400573730469 214.22752522078343) rotate(0 53.659942626953125 12.5)"><text x="53.659942626953125" y="0" font-family="Virgil, Segoe UI Emoji" font-size="20px" fill="#1e1e1e" text-anchor="middle" style="white-space: pre;" direction="ltr" dominant-baseline="text-before-edge">Diag Model</text></g><g transform="translate(459 49.727525220783434) rotate(0 5.159996032714844 12.5)"><text x="0" y="0" font-family="Virgil, Segoe UI Emoji" font-size="20px" fill="#6741d9" text-anchor="start" style="white-space: pre;" direction="ltr" dominant-baseline="text-before-edge">*</text></g><g transform="translate(456.84000396728516 210.22752522078343) rotate(0 5.159996032714844 12.5)"><text x="0" y="0" font-family="Virgil, Segoe UI Emoji" font-size="20px" fill="#6741d9" text-anchor="start" style="white-space: pre;" direction="ltr" dominant-baseline="text-before-edge">*</text></g><g transform="translate(455.84000396728516 387.22752522078343) rotate(0 5.159996032714844 12.5)"><text x="0" y="0" font-family="Virgil, Segoe UI Emoji" font-size="20px" fill="#6741d9" text-anchor="start" style="white-space: pre;" direction="ltr" dominant-baseline="text-before-edge">*</text></g><g stroke-linecap="round"><g transform="translate(616 214.72752522078343) rotate(0 -44 -64.5)"><path d="M0.17 -0.24 C-14.65 -21.83, -74.42 -107.4, -89.07 -128.79 M-1.2 -1.41 C-15.64 -23.45, -72.39 -109.26, -86.91 -130.8" stroke="#6741d9" stroke-width="2" fill="none"></path></g></g><mask></mask><g stroke-linecap="round"><g transform="translate(520 247.72752522078343) rotate(0 41.5 -7.5)"><path d="M0.87 -0.83 C14.63 -3.27, 69.01 -12.01, 82.74 -14.32 M-0.13 1.35 C13.44 -1.47, 67.86 -13.06, 81.65 -16.08" stroke="#6741d9" stroke-width="2" fill="none"></path></g></g><mask></mask><g stroke-linecap="round"><g transform="translate(536 380.72752522078343) rotate(0 36 -69.5)"><path d="M-0.94 -0.46 C11.26 -23.48, 60.56 -115.69, 72.86 -138.95 M0.76 -1.75 C12.92 -24.49, 60.4 -114.48, 72.36 -137.38" stroke="#6741d9" stroke-width="2" fill="none"></path></g></g><mask></mask><g stroke-linecap="round" transform="translate(238.8700622278311 673.5765805065726) rotate(0 77.5 17.5)"><path d="M8.75 0 C61.22 0.69, 112.15 -1.73, 146.25 0 M8.75 0 C47.88 -1.09, 85.42 -0.93, 146.25 0 M146.25 0 C152.72 1.19, 154.04 1.96, 155 8.75 M146.25 0 C153.14 -1.53, 153.05 0.97, 155 8.75 M155 8.75 C155.82 16.61, 155.67 21.44, 155 26.25 M155 8.75 C154.3 13.34, 155.82 19.07, 155 26.25 M155 26.25 C154.94 33.72, 150.3 34.06, 146.25 35 M155 26.25 C156.93 31.09, 149.92 36.69, 146.25 35 M146.25 35 C94.53 35.04, 43.97 34.55, 8.75 35 M146.25 35 C101.26 36.69, 57.66 36.16, 8.75 35 M8.75 35 C4.4 36.79, -0.12 32.97, 0 26.25 M8.75 35 C3.79 35.36, 1.06 31.84, 0 26.25 M0 26.25 C-1.38 21.24, 0.08 18.27, 0 8.75 M0 26.25 C0.21 21.63, 0.25 14.8, 0 8.75 M0 8.75 C-0.54 0.97, 1.34 0.88, 8.75 0 M0 8.75 C-1.73 3.77, 1.47 0.26, 8.75 0" stroke="#1e1e1e" stroke-width="2" fill="none"></path></g><g transform="translate(282.82009732304596 678.5765805065726) rotate(0 33.549964904785156 12.5)"><text x="33.549964904785156" y="0" font-family="Virgil, Segoe UI Emoji" font-size="20px" fill="#1e1e1e" text-anchor="middle" style="white-space: pre;" direction="ltr" dominant-baseline="text-before-edge">Label 1</text></g><g stroke-linecap="round" transform="translate(234.8700622278311 619.5765805065726) rotate(0 77.5 17.5)"><path d="M8.75 0 C55.8 0.73, 104.55 2.98, 146.25 0 M8.75 0 C42.94 1.11, 76.01 0.04, 146.25 0 M146.25 0 C153.01 -1.33, 153.31 1.22, 155 8.75 M146.25 0 C153.82 1.49, 153.12 3.85, 155 8.75 M155 8.75 C154.99 15.56, 156.72 20.39, 155 26.25 M155 8.75 C155.13 13.54, 154.38 16.49, 155 26.25 M155 26.25 C156.68 31.22, 150.2 36.47, 146.25 35 M155 26.25 C156.55 30.95, 150.32 33.64, 146.25 35 M146.25 35 C97.92 34.85, 50.33 33.67, 8.75 35 M146.25 35 C97.37 36, 46.95 35.55, 8.75 35 M8.75 35 C3.68 35.31, 0.92 31.87, 0 26.25 M8.75 35 C1.69 35.71, -1.83 30.34, 0 26.25 M0 26.25 C0.19 22.72, 1.71 17.75, 0 8.75 M0 26.25 C-0.31 18.46, -0.76 12.77, 0 8.75 M0 8.75 C-1.5 3.66, 1.66 0.23, 8.75 0 M0 8.75 C-0.29 2.65, 1.6 -1.85, 8.75 0" stroke="#1e1e1e" stroke-width="2" fill="none"></path></g><g transform="translate(278.82009732304596 624.5765805065726) rotate(0 33.549964904785156 12.5)"><text x="33.549964904785156" y="0" font-family="Virgil, Segoe UI Emoji" font-size="20px" fill="#1e1e1e" text-anchor="middle" style="white-space: pre;" direction="ltr" dominant-baseline="text-before-edge">Label 1</text></g><g stroke-linecap="round"><g transform="translate(409.9475861787796 626.4640768632014) rotate(0 67.5 18)"><path d="M-1.02 0.9 C21.75 6.91, 113.03 29.02, 135.78 35.02 M0.65 0.33 C23.39 6.55, 112.85 30.26, 135.23 36.04" stroke="#6741d9" stroke-width="2" fill="none"></path></g></g><mask></mask><g stroke-linecap="round"><g transform="translate(403.9475861787796 692.4640768632014) rotate(0 62.5 -9.5)"><path d="M0.89 1.07 C21.78 -2.02, 104.17 -15.15, 124.93 -18.47 M-0.11 0.59 C20.66 -2.87, 103.1 -17.32, 123.94 -20.31" stroke="#6741d9" stroke-width="2" fill="none"></path></g></g><mask></mask><g stroke-linecap="round" transform="translate(558.4475861787796 650.9640768632014) rotate(0 77.5 17.5)"><path d="M8.75 0 C52.29 -1.46, 96.12 1.85, 146.25 0 M8.75 0 C59.07 -0.36, 107.76 -0.2, 146.25 0 M146.25 0 C150.74 0.54, 156.36 2.57, 155 8.75 M146.25 0 C152.97 2.06, 155.67 0.93, 155 8.75 M155 8.75 C156 13.95, 153.47 22.74, 155 26.25 M155 8.75 C154.42 15.31, 154.87 20.41, 155 26.25 M155 26.25 C154.7 32.49, 150.33 34.61, 146.25 35 M155 26.25 C156.27 33.32, 151.19 37.29, 146.25 35 M146.25 35 C106.19 32.52, 62.84 32.6, 8.75 35 M146.25 35 C109.87 35.41, 75.18 35.41, 8.75 35 M8.75 35 C3.07 36.96, 0.1 32.9, 0 26.25 M8.75 35 C0.65 34.39, 1.63 31.75, 0 26.25 M0 26.25 C0.48 21.61, -0.8 20.03, 0 8.75 M0 26.25 C-0.33 20.47, -0.59 14.84, 0 8.75 M0 8.75 C1.99 3.01, 3.48 -1.39, 8.75 0 M0 8.75 C-1.56 1.75, 4.61 -1.86, 8.75 0" stroke="#1e1e1e" stroke-width="2" fill="none"></path></g><g transform="translate(570.6276551485062 655.9640768632014) rotate(0 65.31993103027344 12.5)"><text x="65.31993103027344" y="0" font-family="Virgil, Segoe UI Emoji" font-size="20px" fill="#1e1e1e" text-anchor="middle" style="white-space: pre;" direction="ltr" dominant-baseline="text-before-edge">Rhythm Model</text></g><g stroke-linecap="round" transform="translate(210.65882420330536 930.9640768632014) rotate(0 77.5 17.5)"><path d="M8.75 0 C61.26 -0.97, 109.64 0.38, 146.25 0 M8.75 0 C54.28 -1.09, 101.64 -0.14, 146.25 0 M146.25 0 C153.15 -1.63, 154.66 3.51, 155 8.75 M146.25 0 C150.6 1.3, 152.83 4.49, 155 8.75 M155 8.75 C155.93 15.16, 154.35 20.83, 155 26.25 M155 8.75 C155.24 15.51, 155.32 22.12, 155 26.25 M155 26.25 C156.32 30.83, 153.36 33.25, 146.25 35 M155 26.25 C153.21 34.28, 153.93 33.97, 146.25 35 M146.25 35 C110.16 36.65, 71.43 35.74, 8.75 35 M146.25 35 C101.59 35.82, 56.66 36.62, 8.75 35 M8.75 35 C3.3 35.65, -0.9 32.82, 0 26.25 M8.75 35 C1.88 36.3, 0.87 32.65, 0 26.25 M0 26.25 C-1.23 21.92, 0.23 13.95, 0 8.75 M0 26.25 C-0.65 19.49, 0.75 13.11, 0 8.75 M0 8.75 C0.45 1.88, 1.7 1.36, 8.75 0 M0 8.75 C-0.02 3.28, 1.55 1.15, 8.75 0" stroke="#1e1e1e" stroke-width="2" fill="none"></path></g><g transform="translate(254.6088592985202 935.9640768632014) rotate(0 33.549964904785156 12.5)"><text x="33.549964904785156" y="0" font-family="Virgil, Segoe UI Emoji" font-size="20px" fill="#1e1e1e" text-anchor="middle" style="white-space: pre;" direction="ltr" dominant-baseline="text-before-edge">Label 1</text></g><g stroke-linecap="round" transform="translate(206.65882420330536 876.9640768632014) rotate(0 77.5 17.5)"><path d="M8.75 0 C49.19 -1.59, 89.08 -1.68, 146.25 0 M8.75 0 C43.28 -1.4, 76.57 -0.29, 146.25 0 M146.25 0 C150.79 1.13, 153.11 4.28, 155 8.75 M146.25 0 C153.65 1.99, 155.38 3.95, 155 8.75 M155 8.75 C156.02 13.17, 155.32 19.84, 155 26.25 M155 8.75 C155.66 14.27, 155.64 20.12, 155 26.25 M155 26.25 C153.44 33.99, 153.69 34.1, 146.25 35 M155 26.25 C154.28 29.8, 153.2 35.96, 146.25 35 M146.25 35 C98.83 36.84, 51.53 36.29, 8.75 35 M146.25 35 C105.95 36.35, 64.81 36.39, 8.75 35 M8.75 35 C2.02 36.13, 0.76 32.58, 0 26.25 M8.75 35 C3.58 35, -0.14 30.47, 0 26.25 M0 26.25 C1.07 20.18, 1.14 11.74, 0 8.75 M0 26.25 C0.04 21.37, -0.7 18, 0 8.75 M0 8.75 C-0.02 3.23, 1.73 1, 8.75 0 M0 8.75 C-1.86 1.57, 1.64 -1.4, 8.75 0" stroke="#1e1e1e" stroke-width="2" fill="none"></path></g><g transform="translate(250.6088592985202 881.9640768632014) rotate(0 33.549964904785156 12.5)"><text x="33.549964904785156" y="0" font-family="Virgil, Segoe UI Emoji" font-size="20px" fill="#1e1e1e" text-anchor="middle" style="white-space: pre;" direction="ltr" dominant-baseline="text-before-edge">Label 1</text></g><g stroke-linecap="round"><g transform="translate(381.73634815425385 883.8515732198302) rotate(0 67.5 18)"><path d="M-0.54 -0.63 C22.23 5.37, 113.42 30.57, 136.12 36.51 M1.38 1.65 C24.13 7.25, 113.45 28.96, 135.75 34.66" stroke="#6741d9" stroke-width="2" fill="none"></path></g></g><mask></mask><g stroke-linecap="round"><g transform="translate(375.73634815425385 949.8515732198302) rotate(0 62.5 -9.5)"><path d="M1.12 0.51 C22.14 -2.71, 105.02 -16.78, 125.64 -19.98 M0.24 -0.26 C21.22 -3.31, 104.41 -15.53, 125.02 -18.95" stroke="#6741d9" stroke-width="2" fill="none"></path></g></g><mask></mask><g stroke-linecap="round" transform="translate(1222.2363481542538 494.3515732198302) rotate(0 77.5 30)"><path d="M15 0 C62.49 -1, 113.83 -1.95, 140 0 M15 0 C60.22 0.01, 104.25 -0.41, 140 0 M140 0 C149.97 -0.92, 154.08 6.26, 155 15 M140 0 C148.95 0.52, 155.85 6.07, 155 15 M155 15 C153.97 26.64, 153.48 34.18, 155 45 M155 15 C154.93 25.87, 155.73 39.14, 155 45 M155 45 C155.98 54.02, 150.08 60.59, 140 60 M155 45 C157.05 56.47, 151.42 59.87, 140 60 M140 60 C91.24 59.34, 41.92 59.34, 15 60 M140 60 C95.71 60.31, 50.78 59.61, 15 60 M15 60 C6.62 60.26, -0.91 56.25, 0 45 M15 60 C5.79 61.53, -1.54 53.91, 0 45 M0 45 C-0.88 32.01, 1.51 21.45, 0 15 M0 45 C-0.63 34.94, -0.38 25.44, 0 15 M0 15 C-1.6 3.59, 6.58 0.01, 15 0 M0 15 C0.49 5.07, 3.93 -1.95, 15 0" stroke="#1e1e1e" stroke-width="2" fill="none"></path></g><g transform="translate(1243.0964174291562 499.3515732198302) rotate(0 56.639930725097656 25)"><text x="56.639930725097656" y="0" font-family="Virgil, Segoe UI Emoji" font-size="20px" fill="#1e1e1e" text-anchor="middle" style="white-space: pre;" direction="ltr" dominant-baseline="text-before-edge">Superclass </text><text x="56.639930725097656" y="25" font-family="Virgil, Segoe UI Emoji" font-size="20px" fill="#1e1e1e" text-anchor="middle" style="white-space: pre;" direction="ltr" dominant-baseline="text-before-edge">Model</text></g><g stroke-linecap="round"><g transform="translate(919.9475861787796 224.46407686320134) rotate(0 139.5 137.5)"><path d="M0.56 0.55 C47.16 46.44, 233.62 229.92, 279.9 275.79 M-0.61 -0.21 C45.9 45.31, 232.54 228.41, 279.43 274.08" stroke="#f08c00" stroke-width="2" fill="none"></path></g></g><mask></mask><g stroke-linecap="round"><g transform="translate(907.9475861787796 668.4640768632014) rotate(0 142.5 -75.5)"><path d="M0 -0.87 C47.7 -26.25, 238.13 -127.08, 285.46 -151.91 M-1.46 1.29 C46.19 -24, 236.78 -125.36, 284.76 -150.86" stroke="#f08c00" stroke-width="2" fill="none"></path></g></g><mask></mask><g stroke-linecap="round"><g transform="translate(852.9475861787796 923.4640768632014) rotate(0 176.5 -197.5)"><path d="M-1.18 -0.13 C57.58 -66.24, 292.8 -329.85, 351.96 -395.69 M0.4 -1.24 C59.58 -67.29, 295.29 -329.07, 354.13 -394.51" stroke="#f08c00" stroke-width="2" fill="none"></path></g></g><mask></mask><g stroke-linecap="round" transform="translate(516.4475861787796 893.9640768632012) rotate(0 77.5 17.5)"><path d="M8.75 0 C60.63 1.78, 115.15 1.31, 146.25 0 M8.75 0 C54.61 0.23, 99.01 -1.04, 146.25 0 M146.25 0 C152.89 -1.89, 155.35 1.63, 155 8.75 M146.25 0 C151.09 -2.22, 157.24 4.3, 155 8.75 M155 8.75 C155.17 13.51, 156.29 20.03, 155 26.25 M155 8.75 C154.93 12.71, 155.18 17.45, 155 26.25 M155 26.25 C156.54 31.53, 151.26 33.32, 146.25 35 M155 26.25 C155.78 32.56, 153.89 36.3, 146.25 35 M146.25 35 C100.68 36.95, 56.79 35.77, 8.75 35 M146.25 35 C93.91 35.62, 40.11 36.44, 8.75 35 M8.75 35 C2.71 35.83, 0.74 30.7, 0 26.25 M8.75 35 C1.49 34.89, 1.58 33.43, 0 26.25 M0 26.25 C1.28 22.99, -0.48 19.12, 0 8.75 M0 26.25 C0.94 19.65, 0.91 13.7, 0 8.75 M0 8.75 C-0.58 2.46, 3 1.82, 8.75 0 M0 8.75 C1.57 5.1, 2.97 0.15, 8.75 0" stroke="#1e1e1e" stroke-width="2" fill="none"></path></g><g transform="translate(540.0476380586624 898.9640768632012) rotate(0 53.89994812011719 12.5)"><text x="53.89994812011719" y="0" font-family="Virgil, Segoe UI Emoji" font-size="20px" fill="#1e1e1e" text-anchor="middle" style="white-space: pre;" direction="ltr" dominant-baseline="text-before-edge">Form Model</text></g><g stroke-linecap="round" transform="translate(215.4475861787796 40.96407686320134) rotate(0 77.5 17.5)"><path d="M8.75 0 C54.77 1.33, 103.31 -0.18, 146.25 0 M8.75 0 C49.92 -0.95, 89.93 -0.33, 146.25 0 M146.25 0 C153.07 0.65, 155.83 4.77, 155 8.75 M146.25 0 C153.5 -0.9, 152.95 3.03, 155 8.75 M155 8.75 C156.25 14.8, 153.44 22.59, 155 26.25 M155 8.75 C154.94 14.51, 155.77 20.15, 155 26.25 M155 26.25 C153.2 32.15, 153.05 36.79, 146.25 35 M155 26.25 C155.36 30.46, 153.6 37.24, 146.25 35 M146.25 35 C112.26 34.23, 78.92 36.58, 8.75 35 M146.25 35 C119.66 34.3, 90.39 35.94, 8.75 35 M8.75 35 C4.71 34.55, -1.85 33.66, 0 26.25 M8.75 35 C3.48 35.76, 0.13 31.06, 0 26.25 M0 26.25 C1.2 17.78, -1.56 11.87, 0 8.75 M0 26.25 C0.08 18.97, -0.43 12.69, 0 8.75 M0 8.75 C1.09 4.66, 4.11 0.57, 8.75 0 M0 8.75 C-0.3 2.55, 2.39 -1.11, 8.75 0" stroke="#1e1e1e" stroke-width="2" fill="none"></path></g><g transform="translate(247.84762585163116 45.96407686320134) rotate(0 45.09996032714844 12.5)"><text x="45.09996032714844" y="0" font-family="Virgil, Segoe UI Emoji" font-size="20px" fill="#1e1e1e" text-anchor="middle" style="white-space: pre;" direction="ltr" dominant-baseline="text-before-edge">MI Model</text></g><g stroke-linecap="round" transform="translate(244.4475861787796 231.96407686320134) rotate(0 77.5 17.5)"><path d="M8.75 0 C38.3 -0.52, 69.46 0.05, 146.25 0 M8.75 0 C55.11 -1.66, 99.35 -1.22, 146.25 0 M146.25 0 C153.95 1.19, 154.52 4.23, 155 8.75 M146.25 0 C150.99 -2.19, 155.09 3.85, 155 8.75 M155 8.75 C154.51 16.45, 153.89 19.94, 155 26.25 M155 8.75 C155.22 13.44, 155.66 20.22, 155 26.25 M155 26.25 C153.79 33, 152.67 33.93, 146.25 35 M155 26.25 C153.66 30.36, 153.43 32.7, 146.25 35 M146.25 35 C116.54 34.64, 92.08 38.07, 8.75 35 M146.25 35 C108.35 36.42, 70.02 35.64, 8.75 35 M8.75 35 C4.78 36.13, -0.66 33.57, 0 26.25 M8.75 35 C0.82 33.08, -0.82 34.27, 0 26.25 M0 26.25 C-0.66 21.47, 0.6 20.04, 0 8.75 M0 26.25 C-0.22 19.34, -0.3 12.28, 0 8.75 M0 8.75 C0.71 3.6, 2.77 1.52, 8.75 0 M0 8.75 C1.56 0.69, 3.64 -0.96, 8.75 0" stroke="#1e1e1e" stroke-width="2" fill="none"></path></g><g transform="translate(272.6776353120804 236.96407686320134) rotate(0 49.26995086669922 12.5)"><text x="49.26995086669922" y="0" font-family="Virgil, Segoe UI Emoji" font-size="20px" fill="#1e1e1e" text-anchor="middle" style="white-space: pre;" direction="ltr" dominant-baseline="text-before-edge">HYP Model</text></g><g stroke-linecap="round" transform="translate(230.4475861787796 395.96407686320134) rotate(0 77.5 17.5)"><path d="M8.75 0 C54.95 -2.63, 102.82 1.02, 146.25 0 M8.75 0 C57.73 -1.85, 107.7 -0.5, 146.25 0 M146.25 0 C153.38 -0.95, 154.61 2.46, 155 8.75 M146.25 0 C153.82 -1.35, 152.93 3, 155 8.75 M155 8.75 C153.92 15.99, 156.86 19.88, 155 26.25 M155 8.75 C154.54 14.15, 155.57 19.98, 155 26.25 M155 26.25 C153.04 32.49, 153.94 33.04, 146.25 35 M155 26.25 C153.12 33.61, 154.14 34.48, 146.25 35 M146.25 35 C118.36 35.45, 88.27 37.2, 8.75 35 M146.25 35 C96.35 35.19, 47.92 36.97, 8.75 35 M8.75 35 C1.01 34.28, -0.2 31.25, 0 26.25 M8.75 35 C1.34 35.7, 1.25 34.09, 0 26.25 M0 26.25 C-0.33 19.56, -0.89 14.29, 0 8.75 M0 26.25 C0.6 19.56, 0.29 14.19, 0 8.75 M0 8.75 C-0.63 1.69, 3.7 0.7, 8.75 0 M0 8.75 C0.98 2.19, 2.44 0.61, 8.75 0" stroke="#1e1e1e" stroke-width="2" fill="none"></path></g><g transform="translate(247.81764233112335 400.96407686320134) rotate(0 60.12994384765625 12.5)"><text x="60.12994384765625" y="0" font-family="Virgil, Segoe UI Emoji" font-size="20px" fill="#1e1e1e" text-anchor="middle" style="white-space: pre;" direction="ltr" dominant-baseline="text-before-edge">NORM Model</text></g><g stroke-linecap="round"><g transform="translate(174.9475861787796 46.46407686320134) rotate(0 16 8)"><path d="M0.03 0.32 C5.21 3.09, 25.9 13.44, 31.36 16.17 M-1.42 -0.56 C4.15 2.47, 28.09 15.25, 33.74 17.8" stroke="#1e1e1e" stroke-width="2" fill="none"></path></g></g><mask></mask><g stroke-linecap="round"><g transform="translate(176.9475861787796 92.46407686320134) rotate(0 16.5 -12.5)"><path d="M-0.69 0.67 C4.69 -3.68, 27.07 -21.8, 32.49 -26.08 M1.15 -0.03 C6.31 -4.26, 25.78 -21.16, 31.28 -25.11" stroke="#1e1e1e" stroke-width="2" fill="none"></path></g></g><mask></mask><g stroke-linecap="round"><g transform="translate(168.9475861787796 212.46407686320134) rotate(0 28 11)"><path d="M1.16 0.22 C10.48 3.83, 46.89 18.54, 56.06 22.22 M0.32 -0.7 C9.47 2.47, 45.95 16.13, 55.14 20.22" stroke="#1e1e1e" stroke-width="2" fill="none"></path></g></g><mask></mask><g stroke-linecap="round"><g transform="translate(182.9475861787796 270.46407686320134) rotate(0 24.5 -12.5)"><path d="M0.05 0.44 C8.24 -3.98, 41.97 -22.07, 50.17 -26.17 M-1.38 -0.37 C6.66 -4.73, 41.5 -20.96, 49.84 -25.25" stroke="#1e1e1e" stroke-width="2" fill="none"></path></g></g><mask></mask><g stroke-linecap="round"><g transform="translate(162.70276893550067 388.59556439157103) rotate(0 28 11)"><path d="M-0.86 -0.79 C8.6 2.89, 47.33 18.83, 56.77 22.63 M0.88 1.41 C10.26 4.7, 47.22 17.19, 56.22 20.84" stroke="#1e1e1e" stroke-width="2" fill="none"></path></g></g><mask></mask><g stroke-linecap="round"><g transform="translate(176.70276893550067 446.59556439157103) rotate(0 24.5 -12.5)"><path d="M0.77 0.63 C9.04 -3.4, 40.65 -20.63, 48.78 -24.98 M-0.29 -0.08 C7.88 -3.83, 39.49 -19.38, 47.71 -23.43" stroke="#1e1e1e" stroke-width="2" fill="none"></path></g></g><mask></mask><g stroke-linecap="round"><g transform="translate(847.5237554990408 175.98231912733996) rotate(0 -0.5 51)"><path d="M0.87 -0.59 C0.61 16.68, -0.17 85.54, -0.66 102.61 M-0.13 1.72 C-0.6 18.72, -1.49 83.91, -1.44 100.81" stroke="#1e1e1e" stroke-width="2" fill="none"></path></g></g><mask></mask><g transform="translate(848.4930248721316 211.34422759999512) rotate(0 27.699981689453125 12.5)"><text x="0" y="0" font-family="Virgil, Segoe UI Emoji" font-size="20px" fill="#1971c2" text-anchor="start" style="white-space: pre;" direction="ltr" dominant-baseline="text-before-edge">DIAG</text></g><g transform="translate(791.1221944824979 206.56819551100017) rotate(0 5.159996032714844 12.5)"><text x="0" y="0" font-family="Virgil, Segoe UI Emoji" font-size="20px" fill="#6741d9" text-anchor="start" style="white-space: pre;" direction="ltr" dominant-baseline="text-before-edge">*</text></g><g stroke-linecap="round"><g transform="translate(802.5237554990408 629.9823191273397) rotate(0 -0.5 51)"><path d="M-0.53 0.45 C-0.69 17.17, -0.39 84.44, -0.59 101.37 M1.4 -0.36 C1.08 17.02, -1.22 85.29, -1.32 102.57" stroke="#1e1e1e" stroke-width="2" fill="none"></path></g></g><mask></mask><g transform="translate(803.4930248721316 665.3442275999951) rotate(0 38.65996551513672 12.5)"><text x="0" y="0" font-family="Virgil, Segoe UI Emoji" font-size="20px" fill="#1971c2" text-anchor="start" style="white-space: pre;" direction="ltr" dominant-baseline="text-before-edge">RHYTHM</text></g><g transform="translate(746.1221944824979 660.5681955110001) rotate(0 5.159996032714844 12.5)"><text x="0" y="0" font-family="Virgil, Segoe UI Emoji" font-size="20px" fill="#6741d9" text-anchor="start" style="white-space: pre;" direction="ltr" dominant-baseline="text-before-edge">*</text></g><g stroke-linecap="round"><g transform="translate(783.5237554990408 882.9823191273397) rotate(0 -0.5 51)"><path d="M-1.12 0.38 C-1.28 17.33, -2.2 84.64, -2.06 101.7 M0.5 -0.47 C0.8 16.65, 0.28 86.2, 0.09 103.08" stroke="#1e1e1e" stroke-width="2" fill="none"></path></g></g><mask></mask><g transform="translate(784.4930248721316 918.3442275999953) rotate(0 27.439979553222656 12.5)"><text x="0" y="0" font-family="Virgil, Segoe UI Emoji" font-size="20px" fill="#1971c2" text-anchor="start" style="white-space: pre;" direction="ltr" dominant-baseline="text-before-edge">FORM</text></g><g transform="translate(727.1221944824979 913.5681955110001) rotate(0 5.159996032714844 12.5)"><text x="0" y="0" font-family="Virgil, Segoe UI Emoji" font-size="20px" fill="#6741d9" text-anchor="start" style="white-space: pre;" direction="ltr" dominant-baseline="text-before-edge">*</text></g></svg>