<svg version="1.1" xmlns="http://www.w3.org/2000/svg" viewBox="0 0 1708.2280120849607 1267.9999999999998" width="1708.2280120849607" height="1267.9999999999998">
  <!-- svg-source:excalidraw -->
  
  <defs>
    <style class="style-fonts">
      @font-face {
        font-family: "Virgil";
        src: url("https://excalidraw.com/Virgil.woff2");
      }
      @font-face {
        font-family: "Cascadia";
        src: url("https://excalidraw.com/Cascadia.woff2");
      }
      @font-face {
        font-family: "Assistant";
        src: url("https://excalidraw.com/Assistant-Regular.woff2");
      }
    </style>
    
  </defs>
  <rect x="0" y="0" width="1708.2280120849607" height="1267.9999999999998" fill="#ffffff"></rect><g stroke-linecap="round" transform="translate(88.28571428571422 686.0000000000002) rotate(0 70.71428571428572 27.5)"><path d="M13.75 0 C53.13 1.79, 93.94 1.38, 127.68 0 M13.75 0 C44.14 -0.08, 74.09 0.13, 127.68 0 M127.68 0 C136.21 -1.94, 141.89 5.23, 141.43 13.75 M127.68 0 C135.53 -1.77, 139.14 5.7, 141.43 13.75 M141.43 13.75 C142.48 22.87, 141.81 34.14, 141.43 41.25 M141.43 13.75 C141.28 24.41, 142.39 34.05, 141.43 41.25 M141.43 41.25 C139.79 49.76, 135.35 53.94, 127.68 55 M141.43 41.25 C141.95 50.39, 136.86 55.58, 127.68 55 M127.68 55 C83.95 56.27, 42.61 55.78, 13.75 55 M127.68 55 C95.33 53.73, 64.07 53.33, 13.75 55 M13.75 55 C2.96 55.57, -0.47 49.13, 0 41.25 M13.75 55 C5.28 54.08, -2.14 48.48, 0 41.25 M0 41.25 C1.15 36.57, 1.32 29.01, 0 13.75 M0 41.25 C0.99 36.39, -0.52 30.53, 0 13.75 M0 13.75 C-0.43 3.77, 2.63 0.47, 13.75 0 M0 13.75 C0.37 6.42, 4.59 -1.53, 13.75 0" stroke="#1971c2" stroke-width="2" fill="none"></path></g><g transform="translate(120.84984588623041 696.0000000000002) rotate(0 38.15015411376953 17.5)"><text x="38.15015411376953" y="0" font-family="Virgil, Segoe UI Emoji" font-size="28px" fill="#1971c2" text-anchor="middle" style="white-space: pre;" direction="ltr" dominant-baseline="text-before-edge">Signal</text></g><g stroke-linecap="round" transform="translate(511.8571428571429 431) rotate(0 70.71428571428572 50)"><path d="M25 0 C59.57 -0.48, 91.82 1.36, 116.43 0 M25 0 C52.14 -0.36, 79.91 0.69, 116.43 0 M116.43 0 C131.27 -0.88, 141.73 6.84, 141.43 25 M116.43 0 C132.93 1.77, 142.71 10.54, 141.43 25 M141.43 25 C141.66 42.87, 139.54 63.17, 141.43 75 M141.43 25 C141.91 39.79, 140.68 55.59, 141.43 75 M141.43 75 C140.33 92.32, 131.62 98.89, 116.43 100 M141.43 75 C141.31 90.17, 133.69 100.73, 116.43 100 M116.43 100 C90.71 98.3, 61.78 99.02, 25 100 M116.43 100 C84.61 100.64, 52.54 99.69, 25 100 M25 100 C8.21 99.72, 0.07 91.56, 0 75 M25 100 C8.23 100.8, -0.33 93.83, 0 75 M0 75 C-1.84 65.01, 0.79 49.95, 0 25 M0 75 C-0.67 55.33, -0.19 37.4, 0 25 M0 25 C1.56 9.82, 8.42 -0.42, 25 0 M0 25 C-0.47 6.7, 9.34 2.12, 25 0" stroke="#f08c00" stroke-width="2" fill="none"></path></g><g transform="translate(519.6691840035576 463.5) rotate(0 62.902244567871094 17.5)"><text x="62.902244567871094" y="0" font-family="Virgil, Segoe UI Emoji" font-size="28px" fill="#f08c00" text-anchor="middle" style="white-space: pre;" direction="ltr" dominant-baseline="text-before-edge">Diagnosis</text></g><g stroke-linecap="round" transform="translate(519.0000000000002 842.4285714285713) rotate(0 70.71428571428572 27.5)"><path d="M13.75 0 C47.82 0.19, 84.83 -1.4, 127.68 0 M13.75 0 C42.82 1.62, 72.59 1.81, 127.68 0 M127.68 0 C138.36 0.4, 139.72 4.71, 141.43 13.75 M127.68 0 C135.78 -2.29, 142.08 4.7, 141.43 13.75 M141.43 13.75 C140.64 19.74, 141.74 26.74, 141.43 41.25 M141.43 13.75 C141.18 22.24, 141.48 32.36, 141.43 41.25 M141.43 41.25 C141.33 51.83, 135.11 56.26, 127.68 55 M141.43 41.25 C140.39 49.62, 136.63 56.09, 127.68 55 M127.68 55 C102.99 54.2, 76.23 54.81, 13.75 55 M127.68 55 C95.08 55.29, 62.43 55.88, 13.75 55 M13.75 55 C3.34 55.52, 1.82 48.71, 0 41.25 M13.75 55 C6.76 56.06, -1.48 52.16, 0 41.25 M0 41.25 C-1.75 31.33, -0.05 22.25, 0 13.75 M0 41.25 C-0.22 30.24, 0.42 21.57, 0 13.75 M0 13.75 C0.54 3.73, 6.21 -1.98, 13.75 0 M0 13.75 C0.21 3.59, 4.53 -0.34, 13.75 0" stroke="#f08c00" stroke-width="2" fill="none"></path></g><g transform="translate(559.0401524135048 852.4285714285713) rotate(0 30.67413330078125 17.5)"><text x="30.67413330078125" y="0" font-family="Virgil, Segoe UI Emoji" font-size="28px" fill="#f08c00" text-anchor="middle" style="white-space: pre;" direction="ltr" dominant-baseline="text-before-edge">Form</text></g><g stroke-linecap="round" transform="translate(527.5714285714291 1079.5714285714284) rotate(0 70.71428571428572 27.5)"><path d="M13.75 0 C49.03 0.88, 80.87 -2.35, 127.68 0 M13.75 0 C48.96 1.18, 83.16 1.62, 127.68 0 M127.68 0 C138.24 -0.92, 140.38 4.77, 141.43 13.75 M127.68 0 C135.58 0.75, 139.73 3.31, 141.43 13.75 M141.43 13.75 C141.88 21.76, 142.66 28.24, 141.43 41.25 M141.43 13.75 C141.21 24.21, 140.49 34.33, 141.43 41.25 M141.43 41.25 C141.31 50.58, 136.12 53.26, 127.68 55 M141.43 41.25 C141.29 50.09, 136.93 54.88, 127.68 55 M127.68 55 C95.92 53.59, 60.9 56.66, 13.75 55 M127.68 55 C102.57 56.28, 79.49 55.5, 13.75 55 M13.75 55 C3.98 53.24, 0.36 50.36, 0 41.25 M13.75 55 C6.38 56.71, 0.1 49.94, 0 41.25 M0 41.25 C2.04 34.11, -0.66 27.51, 0 13.75 M0 41.25 C-0.05 35.58, -0.55 30.61, 0 13.75 M0 13.75 C0.13 3.41, 6.56 0.76, 13.75 0 M0 13.75 C1.31 4.14, 3.52 2.12, 13.75 0" stroke="#f08c00" stroke-width="2" fill="none"></path></g><g transform="translate(551.6235133579805 1089.5714285714284) rotate(0 46.662200927734375 17.5)"><text x="46.662200927734375" y="0" font-family="Virgil, Segoe UI Emoji" font-size="28px" fill="#f08c00" text-anchor="middle" style="white-space: pre;" direction="ltr" dominant-baseline="text-before-edge">Rhythm</text></g><g stroke-linecap="round" transform="translate(891.8571428571429 121.00000000000045) rotate(0 70.71428571428578 27.5)"><path d="M13.75 0 C53.64 1.33, 90.07 -1.69, 127.68 0 M13.75 0 C50.26 0.26, 88.87 -1.02, 127.68 0 M127.68 0 C135.6 1.97, 141.82 4.29, 141.43 13.75 M127.68 0 C136.28 -1.87, 143.51 5.92, 141.43 13.75 M141.43 13.75 C140.28 24.69, 140.73 30.82, 141.43 41.25 M141.43 13.75 C140.97 22.93, 141.66 29.64, 141.43 41.25 M141.43 41.25 C142.26 50.31, 136.09 56.54, 127.68 55 M141.43 41.25 C141.88 52.23, 134.92 54.76, 127.68 55 M127.68 55 C96.38 53.93, 62.01 55.04, 13.75 55 M127.68 55 C96.02 54.54, 64.6 54.93, 13.75 55 M13.75 55 C4.77 55.4, 1.57 49.65, 0 41.25 M13.75 55 C5.25 55.72, -0.04 48.78, 0 41.25 M0 41.25 C0.09 31.48, -0.57 25.44, 0 13.75 M0 41.25 C-0.39 33.63, 0.29 23.66, 0 13.75 M0 13.75 C-0.3 2.76, 5.23 -1.44, 13.75 0 M0 13.75 C-0.21 2.54, 5.83 -1.12, 13.75 0" stroke="#e03131" stroke-width="2" fill="none"></path></g><g transform="translate(923.175264630999 131.00000000000045) rotate(0 39.39616394042969 17.5)"><text x="39.39616394042969" y="0" font-family="Virgil, Segoe UI Emoji" font-size="28px" fill="#e03131" text-anchor="middle" style="white-space: pre;" direction="ltr" dominant-baseline="text-before-edge">NORM</text></g><g stroke-linecap="round" transform="translate(896.1428571428576 212.42857142857133) rotate(0 70.71428571428578 27.5)"><path d="M13.75 0 C53.38 -1.24, 90.73 -2.52, 127.68 0 M13.75 0 C48.6 -0.11, 82.43 0.52, 127.68 0 M127.68 0 C137.48 -0.08, 139.96 4.68, 141.43 13.75 M127.68 0 C136.97 0.08, 142.92 2.4, 141.43 13.75 M141.43 13.75 C142.09 21.79, 142.82 26.43, 141.43 41.25 M141.43 13.75 C141.69 24.18, 141.12 34.99, 141.43 41.25 M141.43 41.25 C143.17 48.9, 138.27 53.26, 127.68 55 M141.43 41.25 C142.33 48.48, 137.51 56.14, 127.68 55 M127.68 55 C94.66 52.77, 62.51 55.38, 13.75 55 M127.68 55 C84.95 55.12, 43.77 55.91, 13.75 55 M13.75 55 C4.69 54.55, 1.35 52.3, 0 41.25 M13.75 55 C6.18 52.88, -2.08 50.94, 0 41.25 M0 41.25 C-0.33 29.79, 0.99 23.72, 0 13.75 M0 41.25 C-0.82 36.11, -0.25 29.51, 0 13.75 M0 13.75 C-1.52 6.28, 4.53 0.1, 13.75 0 M0 13.75 C-1.66 5.96, 6.73 0.48, 13.75 0" stroke="#e03131" stroke-width="2" fill="none"></path></g><g transform="translate(948.503062656948 222.42857142857133) rotate(0 18.354080200195312 17.5)"><text x="18.354080200195312" y="0" font-family="Virgil, Segoe UI Emoji" font-size="28px" fill="#e03131" text-anchor="middle" style="white-space: pre;" direction="ltr" dominant-baseline="text-before-edge">MI</text></g><g stroke-linecap="round" transform="translate(894.7142857142856 303.8571428571429) rotate(0 70.71428571428578 27.5)"><path d="M13.75 0 C54.64 0.54, 94.52 -1.56, 127.68 0 M13.75 0 C49.11 -0.99, 82.68 -0.93, 127.68 0 M127.68 0 C135.44 0.91, 142.57 6.22, 141.43 13.75 M127.68 0 C135.56 1.84, 139.8 2.57, 141.43 13.75 M141.43 13.75 C142.11 24.99, 139.91 34.16, 141.43 41.25 M141.43 13.75 C141.83 20.1, 141.4 25.11, 141.43 41.25 M141.43 41.25 C140.04 49.97, 135.41 54.98, 127.68 55 M141.43 41.25 C142.77 51.97, 136.44 56.82, 127.68 55 M127.68 55 C103.55 54.88, 78.94 56.12, 13.75 55 M127.68 55 C81.9 54.18, 38.42 54.14, 13.75 55 M13.75 55 C6.27 54.72, -1.84 51.46, 0 41.25 M13.75 55 C6.55 53.08, 0.48 50, 0 41.25 M0 41.25 C0.14 33.58, 1.47 28.89, 0 13.75 M0 41.25 C1.13 33.07, 1.12 25.26, 0 13.75 M0 13.75 C-1.82 4.15, 6.35 -1.08, 13.75 0 M0 13.75 C2.29 5.14, 2.42 0.02, 13.75 0" stroke="#e03131" stroke-width="2" fill="none"></path></g><g transform="translate(941.236470903669 313.8571428571429) rotate(0 24.192100524902344 17.5)"><text x="24.192100524902344" y="0" font-family="Virgil, Segoe UI Emoji" font-size="28px" fill="#e03131" text-anchor="middle" style="white-space: pre;" direction="ltr" dominant-baseline="text-before-edge">HYP</text></g><g stroke-linecap="round" transform="translate(896.1428571428571 436.71428571428555) rotate(0 70.71428571428578 27.5)"><path d="M13.75 0 C53.55 -0.84, 97.79 1.7, 127.68 0 M13.75 0 C56.56 -1.79, 101.24 -0.93, 127.68 0 M127.68 0 C136.61 0.68, 143.17 3.07, 141.43 13.75 M127.68 0 C138.48 -2, 142.33 2.64, 141.43 13.75 M141.43 13.75 C140.86 21.41, 141.12 30.42, 141.43 41.25 M141.43 13.75 C141.41 22.77, 140.71 29.41, 141.43 41.25 M141.43 41.25 C141.02 50.43, 136.96 54.55, 127.68 55 M141.43 41.25 C142.99 52.58, 138.45 52.88, 127.68 55 M127.68 55 C104.16 57.26, 79.61 53.73, 13.75 55 M127.68 55 C87.78 53.87, 46.71 54.87, 13.75 55 M13.75 55 C4.21 55.36, -1.52 52.11, 0 41.25 M13.75 55 C4.52 55.11, -1.66 51.8, 0 41.25 M0 41.25 C1.52 28.61, -0.49 21.38, 0 13.75 M0 41.25 C-1.22 34.49, -0.92 27.13, 0 13.75 M0 13.75 C0.95 2.92, 2.64 -1.14, 13.75 0 M0 13.75 C-1.55 2.35, 2.4 1.89, 13.75 0" stroke="#e03131" stroke-width="2" fill="none"></path></g><g transform="translate(926.8169664655413 446.71428571428555) rotate(0 40.04017639160156 17.5)"><text x="40.04017639160156" y="0" font-family="Virgil, Segoe UI Emoji" font-size="28px" fill="#e03131" text-anchor="middle" style="white-space: pre;" direction="ltr" dominant-baseline="text-before-edge">STTC</text></g><g stroke-linecap="round" transform="translate(904.7142857142856 588.1428571428576) rotate(0 70.71428571428578 27.5)"><path d="M13.75 0 C39.83 -0.75, 66.66 1.23, 127.68 0 M13.75 0 C39.68 0.15, 65.12 1.48, 127.68 0 M127.68 0 C136.56 -0.7, 140.04 4.14, 141.43 13.75 M127.68 0 C135.19 -0.02, 142.77 6.13, 141.43 13.75 M141.43 13.75 C140.07 21.1, 141.66 29.38, 141.43 41.25 M141.43 13.75 C142.31 20.46, 140.71 29.24, 141.43 41.25 M141.43 41.25 C142.43 50.8, 138.53 54.72, 127.68 55 M141.43 41.25 C139.31 51.61, 138.82 53.08, 127.68 55 M127.68 55 C92.78 53.75, 54.95 52.61, 13.75 55 M127.68 55 C83.12 55.66, 40.95 55.26, 13.75 55 M13.75 55 C6.42 56.58, -1.82 49.98, 0 41.25 M13.75 55 C6.62 53.76, 2.29 50.97, 0 41.25 M0 41.25 C-1.19 36.54, -1.66 27.99, 0 13.75 M0 41.25 C-0.77 35.38, 1.15 26.88, 0 13.75 M0 13.75 C1.17 5.42, 4.36 -0.27, 13.75 0 M0 13.75 C2.24 3.24, 4.05 -0.63, 13.75 0" stroke="#e03131" stroke-width="2" fill="none"></path></g><g transform="translate(955.4924904959541 598.1428571428576) rotate(0 19.936080932617188 17.5)"><text x="19.936080932617188" y="0" font-family="Virgil, Segoe UI Emoji" font-size="28px" fill="#e03131" text-anchor="middle" style="white-space: pre;" direction="ltr" dominant-baseline="text-before-edge">CD</text></g><g stroke-linecap="round" transform="translate(1306.1428571428576 22.428571428571786) rotate(0 70.71428571428578 27.5)"><path d="M13.75 0 C39.5 0.34, 66.1 0.06, 127.68 0 M13.75 0 C54.81 -1.13, 94.25 -1.43, 127.68 0 M127.68 0 C135.78 -1.95, 139.59 4.24, 141.43 13.75 M127.68 0 C138.81 1.03, 140.87 3.57, 141.43 13.75 M141.43 13.75 C142.53 21.03, 141.48 26.92, 141.43 41.25 M141.43 13.75 C141.17 22.87, 141.79 29.88, 141.43 41.25 M141.43 41.25 C140.1 49.94, 136.75 54.5, 127.68 55 M141.43 41.25 C143.49 49.97, 137.26 55.08, 127.68 55 M127.68 55 C85.07 56.09, 43.45 53.97, 13.75 55 M127.68 55 C98.51 54.43, 70.09 54.81, 13.75 55 M13.75 55 C3.45 56.81, -1.67 49.19, 0 41.25 M13.75 55 C4.18 54.82, 1.5 52.38, 0 41.25 M0 41.25 C0 30.49, -0.6 23.92, 0 13.75 M0 41.25 C-0.91 35.14, -0.81 28.77, 0 13.75 M0 13.75 C-0.61 4.29, 4.03 -0.38, 13.75 0 M0 13.75 C-0.53 5.65, 5.72 -1.84, 13.75 0" stroke="#1e1e1e" stroke-width="2" fill="none"></path></g><g transform="translate(1337.4609789167137 32.428571428571786) rotate(0 39.39616394042969 17.5)"><text x="39.39616394042969" y="0" font-family="Virgil, Segoe UI Emoji" font-size="28px" fill="#1e1e1e" text-anchor="middle" style="white-space: pre;" direction="ltr" dominant-baseline="text-before-edge">NORM</text></g><g stroke-linecap="round" transform="translate(1314.714285714286 106.714285714286) rotate(0 70.71428571428578 27.5)"><path d="M13.75 0 C43.54 -0.33, 71.75 -1.45, 127.68 0 M13.75 0 C54.3 -0.11, 94.78 0.24, 127.68 0 M127.68 0 C137.67 1.4, 140.17 4.26, 141.43 13.75 M127.68 0 C136.48 -1.4, 141.4 3.6, 141.43 13.75 M141.43 13.75 C140.99 20.25, 141.77 29.47, 141.43 41.25 M141.43 13.75 C140.43 19.59, 142.11 27.23, 141.43 41.25 M141.43 41.25 C141.03 51.91, 136.46 54.95, 127.68 55 M141.43 41.25 C142.56 52.03, 137.71 56.87, 127.68 55 M127.68 55 C91.75 56.23, 55.24 54.18, 13.75 55 M127.68 55 C81.62 55.43, 37.07 55.69, 13.75 55 M13.75 55 C6.1 56.2, 1.37 51.43, 0 41.25 M13.75 55 C5.71 55.71, -0.31 49.81, 0 41.25 M0 41.25 C-1.84 36.89, 0.28 27.72, 0 13.75 M0 41.25 C0.46 30.82, -0.83 21.72, 0 13.75 M0 13.75 C1.92 3.66, 6.12 -1.2, 13.75 0 M0 13.75 C1.45 6.67, 5.12 -0.33, 13.75 0" stroke="#1e1e1e" stroke-width="2" fill="none"></path></g><g transform="translate(1338.4583794730054 116.714285714286) rotate(0 46.970191955566406 17.5)"><text x="46.970191955566406" y="0" font-family="Virgil, Segoe UI Emoji" font-size="28px" fill="#1e1e1e" text-anchor="middle" style="white-space: pre;" direction="ltr" dominant-baseline="text-before-edge">Label 1</text></g><g stroke-linecap="round" transform="translate(1323.285714285715 163.85714285714334) rotate(0 70.71428571428578 27.5)"><path d="M13.75 0 C39.13 -2.07, 64.2 -1.09, 127.68 0 M13.75 0 C49.04 1.64, 81.62 1.29, 127.68 0 M127.68 0 C136.29 0.27, 140.92 5.76, 141.43 13.75 M127.68 0 C135.93 -1.18, 141.73 5.03, 141.43 13.75 M141.43 13.75 C140.28 23.51, 140.99 33.17, 141.43 41.25 M141.43 13.75 C141.45 23.02, 142.63 30.86, 141.43 41.25 M141.43 41.25 C142.67 49.6, 138.27 55.7, 127.68 55 M141.43 41.25 C142.78 50.88, 138.61 53.41, 127.68 55 M127.68 55 C85.25 56.19, 44.98 56.66, 13.75 55 M127.68 55 C87.39 55.42, 44.42 54.38, 13.75 55 M13.75 55 C2.89 55.7, -0.96 51.81, 0 41.25 M13.75 55 C6.75 54.15, -0.49 52.57, 0 41.25 M0 41.25 C-1.76 32.4, -2.06 27.12, 0 13.75 M0 41.25 C0.53 33.94, 0.56 27.36, 0 13.75 M0 13.75 C0.94 3.2, 4.6 1.1, 13.75 0 M0 13.75 C-1.75 3.83, 5.91 2.02, 13.75 0" stroke="#1e1e1e" stroke-width="2" fill="none"></path></g><g transform="translate(1347.0298080444343 173.85714285714334) rotate(0 46.970191955566406 17.5)"><text x="46.970191955566406" y="0" font-family="Virgil, Segoe UI Emoji" font-size="28px" fill="#1e1e1e" text-anchor="middle" style="white-space: pre;" direction="ltr" dominant-baseline="text-before-edge">Label 1</text></g><g stroke-linecap="round" transform="translate(1321.8571428571433 212.4285714285718) rotate(0 70.71428571428578 27.5)"><path d="M13.75 0 C57.86 -2.6, 99.4 -1.68, 127.68 0 M13.75 0 C49.05 -1.18, 85.27 -0.48, 127.68 0 M127.68 0 C137.71 -1.57, 140.52 3.65, 141.43 13.75 M127.68 0 C137.22 -0.26, 142.07 4.82, 141.43 13.75 M141.43 13.75 C143.01 26.41, 141.6 36.51, 141.43 41.25 M141.43 13.75 C142.21 21.08, 142.39 27.31, 141.43 41.25 M141.43 41.25 C142.59 49.26, 136.58 53.38, 127.68 55 M141.43 41.25 C142.97 49.18, 138.93 56.42, 127.68 55 M127.68 55 C93.78 54.42, 56.68 54.37, 13.75 55 M127.68 55 C90.43 55.42, 51.08 56.73, 13.75 55 M13.75 55 C4.2 55.81, -0.33 48.77, 0 41.25 M13.75 55 C3.29 52.76, 1.52 49.7, 0 41.25 M0 41.25 C0.11 34.87, 1.73 27.54, 0 13.75 M0 41.25 C-0.76 34.58, 0.57 29.43, 0 13.75 M0 13.75 C0.75 6.22, 5.85 -0.14, 13.75 0 M0 13.75 C1.54 3.96, 6.42 0.29, 13.75 0" stroke="#1e1e1e" stroke-width="2" fill="none"></path></g><g transform="translate(1345.6012366158627 222.4285714285718) rotate(0 46.970191955566406 17.5)"><text x="46.970191955566406" y="0" font-family="Virgil, Segoe UI Emoji" font-size="28px" fill="#1e1e1e" text-anchor="middle" style="white-space: pre;" direction="ltr" dominant-baseline="text-before-edge">Label 1</text></g><g stroke-linecap="round" transform="translate(1303.2857142857144 298.14285714285757) rotate(0 70.71428571428578 27.5)"><path d="M13.75 0 C39.5 0.34, 66.1 0.06, 127.68 0 M13.75 0 C54.81 -1.13, 94.25 -1.43, 127.68 0 M127.68 0 C135.78 -1.95, 139.59 4.24, 141.43 13.75 M127.68 0 C138.81 1.03, 140.87 3.57, 141.43 13.75 M141.43 13.75 C142.53 21.03, 141.48 26.92, 141.43 41.25 M141.43 13.75 C141.17 22.87, 141.79 29.88, 141.43 41.25 M141.43 41.25 C140.1 49.94, 136.75 54.5, 127.68 55 M141.43 41.25 C143.49 49.97, 137.26 55.08, 127.68 55 M127.68 55 C85.07 56.09, 43.45 53.97, 13.75 55 M127.68 55 C98.51 54.43, 70.09 54.81, 13.75 55 M13.75 55 C3.45 56.81, -1.67 49.19, 0 41.25 M13.75 55 C4.18 54.82, 1.5 52.38, 0 41.25 M0 41.25 C0 30.49, -0.6 23.92, 0 13.75 M0 41.25 C-0.91 35.14, -0.81 28.77, 0 13.75 M0 13.75 C-0.61 4.29, 4.03 -0.38, 13.75 0 M0 13.75 C-0.53 5.65, 5.72 -1.84, 13.75 0" stroke="#1e1e1e" stroke-width="2" fill="none"></path></g><g transform="translate(1327.0298080444338 308.14285714285757) rotate(0 46.970191955566406 17.5)"><text x="46.970191955566406" y="0" font-family="Virgil, Segoe UI Emoji" font-size="28px" fill="#1e1e1e" text-anchor="middle" style="white-space: pre;" direction="ltr" dominant-baseline="text-before-edge">Label 1</text></g><g stroke-linecap="round" transform="translate(1294.714285714286 346.714285714286) rotate(0 70.71428571428578 27.5)"><path d="M13.75 0 C39.5 0.34, 66.1 0.06, 127.68 0 M13.75 0 C54.81 -1.13, 94.25 -1.43, 127.68 0 M127.68 0 C135.78 -1.95, 139.59 4.24, 141.43 13.75 M127.68 0 C138.81 1.03, 140.87 3.57, 141.43 13.75 M141.43 13.75 C142.53 21.03, 141.48 26.92, 141.43 41.25 M141.43 13.75 C141.17 22.87, 141.79 29.88, 141.43 41.25 M141.43 41.25 C140.1 49.94, 136.75 54.5, 127.68 55 M141.43 41.25 C143.49 49.97, 137.26 55.08, 127.68 55 M127.68 55 C85.07 56.09, 43.45 53.97, 13.75 55 M127.68 55 C98.51 54.43, 70.09 54.81, 13.75 55 M13.75 55 C3.45 56.81, -1.67 49.19, 0 41.25 M13.75 55 C4.18 54.82, 1.5 52.38, 0 41.25 M0 41.25 C0 30.49, -0.6 23.92, 0 13.75 M0 41.25 C-0.91 35.14, -0.81 28.77, 0 13.75 M0 13.75 C-0.61 4.29, 4.03 -0.38, 13.75 0 M0 13.75 C-0.53 5.65, 5.72 -1.84, 13.75 0" stroke="#1e1e1e" stroke-width="2" fill="none"></path></g><g transform="translate(1318.4583794730054 356.714285714286) rotate(0 46.970191955566406 17.5)"><text x="46.970191955566406" y="0" font-family="Virgil, Segoe UI Emoji" font-size="28px" fill="#1e1e1e" text-anchor="middle" style="white-space: pre;" direction="ltr" dominant-baseline="text-before-edge">Label 1</text></g><g stroke-linecap="round" transform="translate(1316.142857142857 386.714285714286) rotate(0 70.71428571428578 27.5)"><path d="M13.75 0 C39.5 0.34, 66.1 0.06, 127.68 0 M13.75 0 C54.81 -1.13, 94.25 -1.43, 127.68 0 M127.68 0 C135.78 -1.95, 139.59 4.24, 141.43 13.75 M127.68 0 C138.81 1.03, 140.87 3.57, 141.43 13.75 M141.43 13.75 C142.53 21.03, 141.48 26.92, 141.43 41.25 M141.43 13.75 C141.17 22.87, 141.79 29.88, 141.43 41.25 M141.43 41.25 C140.1 49.94, 136.75 54.5, 127.68 55 M141.43 41.25 C143.49 49.97, 137.26 55.08, 127.68 55 M127.68 55 C85.07 56.09, 43.45 53.97, 13.75 55 M127.68 55 C98.51 54.43, 70.09 54.81, 13.75 55 M13.75 55 C3.45 56.81, -1.67 49.19, 0 41.25 M13.75 55 C4.18 54.82, 1.5 52.38, 0 41.25 M0 41.25 C0 30.49, -0.6 23.92, 0 13.75 M0 41.25 C-0.91 35.14, -0.81 28.77, 0 13.75 M0 13.75 C-0.61 4.29, 4.03 -0.38, 13.75 0 M0 13.75 C-0.53 5.65, 5.72 -1.84, 13.75 0" stroke="#1e1e1e" stroke-width="2" fill="none"></path></g><g transform="translate(1339.8869509015765 396.714285714286) rotate(0 46.970191955566406 17.5)"><text x="46.970191955566406" y="0" font-family="Virgil, Segoe UI Emoji" font-size="28px" fill="#1e1e1e" text-anchor="middle" style="white-space: pre;" direction="ltr" dominant-baseline="text-before-edge">Label 1</text></g><g stroke-linecap="round" transform="translate(1307.5714285714287 438.14285714285757) rotate(0 70.71428571428578 27.5)"><path d="M13.75 0 C39.5 0.34, 66.1 0.06, 127.68 0 M13.75 0 C54.81 -1.13, 94.25 -1.43, 127.68 0 M127.68 0 C135.78 -1.95, 139.59 4.24, 141.43 13.75 M127.68 0 C138.81 1.03, 140.87 3.57, 141.43 13.75 M141.43 13.75 C142.53 21.03, 141.48 26.92, 141.43 41.25 M141.43 13.75 C141.17 22.87, 141.79 29.88, 141.43 41.25 M141.43 41.25 C140.1 49.94, 136.75 54.5, 127.68 55 M141.43 41.25 C143.49 49.97, 137.26 55.08, 127.68 55 M127.68 55 C85.07 56.09, 43.45 53.97, 13.75 55 M127.68 55 C98.51 54.43, 70.09 54.81, 13.75 55 M13.75 55 C3.45 56.81, -1.67 49.19, 0 41.25 M13.75 55 C4.18 54.82, 1.5 52.38, 0 41.25 M0 41.25 C0 30.49, -0.6 23.92, 0 13.75 M0 41.25 C-0.91 35.14, -0.81 28.77, 0 13.75 M0 13.75 C-0.61 4.29, 4.03 -0.38, 13.75 0 M0 13.75 C-0.53 5.65, 5.72 -1.84, 13.75 0" stroke="#1e1e1e" stroke-width="2" fill="none"></path></g><g transform="translate(1331.315522330148 448.14285714285757) rotate(0 46.970191955566406 17.5)"><text x="46.970191955566406" y="0" font-family="Virgil, Segoe UI Emoji" font-size="28px" fill="#1e1e1e" text-anchor="middle" style="white-space: pre;" direction="ltr" dominant-baseline="text-before-edge">Label 1</text></g><g stroke-linecap="round" transform="translate(1311.857142857143 482.4285714285718) rotate(0 70.71428571428578 27.5)"><path d="M13.75 0 C39.5 0.34, 66.1 0.06, 127.68 0 M13.75 0 C54.81 -1.13, 94.25 -1.43, 127.68 0 M127.68 0 C135.78 -1.95, 139.59 4.24, 141.43 13.75 M127.68 0 C138.81 1.03, 140.87 3.57, 141.43 13.75 M141.43 13.75 C142.53 21.03, 141.48 26.92, 141.43 41.25 M141.43 13.75 C141.17 22.87, 141.79 29.88, 141.43 41.25 M141.43 41.25 C140.1 49.94, 136.75 54.5, 127.68 55 M141.43 41.25 C143.49 49.97, 137.26 55.08, 127.68 55 M127.68 55 C85.07 56.09, 43.45 53.97, 13.75 55 M127.68 55 C98.51 54.43, 70.09 54.81, 13.75 55 M13.75 55 C3.45 56.81, -1.67 49.19, 0 41.25 M13.75 55 C4.18 54.82, 1.5 52.38, 0 41.25 M0 41.25 C0 30.49, -0.6 23.92, 0 13.75 M0 41.25 C-0.91 35.14, -0.81 28.77, 0 13.75 M0 13.75 C-0.61 4.29, 4.03 -0.38, 13.75 0 M0 13.75 C-0.53 5.65, 5.72 -1.84, 13.75 0" stroke="#1e1e1e" stroke-width="2" fill="none"></path></g><g transform="translate(1335.6012366158623 492.4285714285718) rotate(0 46.970191955566406 17.5)"><text x="46.970191955566406" y="0" font-family="Virgil, Segoe UI Emoji" font-size="28px" fill="#1e1e1e" text-anchor="middle" style="white-space: pre;" direction="ltr" dominant-baseline="text-before-edge">Label 1</text></g><g stroke-linecap="round" transform="translate(1309.0000000000002 531.0000000000002) rotate(0 70.71428571428578 27.5)"><path d="M13.75 0 C39.5 0.34, 66.1 0.06, 127.68 0 M13.75 0 C54.81 -1.13, 94.25 -1.43, 127.68 0 M127.68 0 C135.78 -1.95, 139.59 4.24, 141.43 13.75 M127.68 0 C138.81 1.03, 140.87 3.57, 141.43 13.75 M141.43 13.75 C142.53 21.03, 141.48 26.92, 141.43 41.25 M141.43 13.75 C141.17 22.87, 141.79 29.88, 141.43 41.25 M141.43 41.25 C140.1 49.94, 136.75 54.5, 127.68 55 M141.43 41.25 C143.49 49.97, 137.26 55.08, 127.68 55 M127.68 55 C85.07 56.09, 43.45 53.97, 13.75 55 M127.68 55 C98.51 54.43, 70.09 54.81, 13.75 55 M13.75 55 C3.45 56.81, -1.67 49.19, 0 41.25 M13.75 55 C4.18 54.82, 1.5 52.38, 0 41.25 M0 41.25 C0 30.49, -0.6 23.92, 0 13.75 M0 41.25 C-0.91 35.14, -0.81 28.77, 0 13.75 M0 13.75 C-0.61 4.29, 4.03 -0.38, 13.75 0 M0 13.75 C-0.53 5.65, 5.72 -1.84, 13.75 0" stroke="#1e1e1e" stroke-width="2" fill="none"></path></g><g transform="translate(1332.7440937587196 541.0000000000002) rotate(0 46.970191955566406 17.5)"><text x="46.970191955566406" y="0" font-family="Virgil, Segoe UI Emoji" font-size="28px" fill="#1e1e1e" text-anchor="middle" style="white-space: pre;" direction="ltr" dominant-baseline="text-before-edge">Label 1</text></g><g stroke-linecap="round"><g transform="translate(1038.2857142857144 134.5714285714289) rotate(0 131.42857142857133 -42.85714285714289)"><path d="M-0.34 -0.62 C43.72 -15.01, 219.64 -72.04, 263.59 -86.34 M1.68 1.66 C45.71 -12.57, 219.49 -70.61, 263.02 -85.13" stroke="#1e1e1e" stroke-width="2" fill="none"></path></g></g><mask></mask><g stroke-linecap="round"><g transform="translate(1045.4285714285713 226.00000000000023) rotate(0 130 -47.85714285714266)"><path d="M0.35 -0.64 C43.7 -16.73, 215.96 -80.7, 259.41 -96.64 M-0.93 1.64 C42.88 -14.32, 218.19 -79.44, 261.81 -95.59" stroke="#1e1e1e" stroke-width="2" fill="none"></path></g></g><mask></mask><g stroke-linecap="round"><g transform="translate(1038.2857142857144 228.85714285714312) rotate(0 139.28571428571445 -20)"><path d="M-0.29 0.73 C45.92 -5.96, 230.95 -33.18, 277.51 -39.78 M1.76 0.07 C48.31 -7.04, 233.53 -35.01, 279.67 -41.79" stroke="#1e1e1e" stroke-width="2" fill="none"></path></g></g><mask></mask><g stroke-linecap="round"><g transform="translate(1049.7142857142856 243.14285714285734) rotate(0 132.14285714285757 -1.4285714285714448)"><path d="M0.06 1.1 C44.12 0.68, 221.37 -1.16, 265.37 -1.97 M-1.36 0.63 C42.54 -0.17, 220.89 -3.04, 264.98 -3.62" stroke="#1e1e1e" stroke-width="2" fill="none"></path></g></g><mask></mask><g stroke-linecap="round"><g transform="translate(1039.7142857142856 317.42857142857156) rotate(0 128.57142857142867 -1.4285714285713311)"><path d="M-0.29 0.05 C42.48 -0.47, 213.55 -2.01, 256.41 -2.49 M1.75 -0.96 C44.94 -1.92, 216.37 -4.32, 258.74 -4.42" stroke="#1e1e1e" stroke-width="2" fill="none"></path></g></g><mask></mask><g stroke-linecap="round"><g transform="translate(1049.7142857142856 323.14285714285734) rotate(0 114.28571428571445 19.285714285714334)"><path d="M-0.17 -1.14 C37.97 5.41, 191.49 32.39, 229.6 39.16 M-1.72 0.88 C36.29 7.08, 190.96 31.22, 229.2 37.35" stroke="#1e1e1e" stroke-width="2" fill="none"></path></g></g><mask></mask><g stroke-linecap="round"><g transform="translate(1049.7142857142856 331.714285714286) rotate(0 123.57142857142867 37.14285714285711)"><path d="M-0.13 0.32 C41.13 13.02, 205.54 62.63, 246.81 75.11 M-1.66 -0.56 C39.48 11.9, 204.27 61.1, 245.69 73.42" stroke="#1e1e1e" stroke-width="2" fill="none"></path></g></g><mask></mask><g stroke-linecap="round" transform="translate(1316.857142857143 604.5714285714287) rotate(0 70.71428571428578 27.5)"><path d="M13.75 0 C46.56 -0.19, 80.74 1.42, 127.68 0 M13.75 0 C43.24 1.64, 71.78 0.35, 127.68 0 M127.68 0 C136.88 -0.04, 142.89 3.33, 141.43 13.75 M127.68 0 C134.72 -0.88, 140.73 6.31, 141.43 13.75 M141.43 13.75 C143.51 21.88, 142.13 28.73, 141.43 41.25 M141.43 13.75 C140.46 23.39, 142.04 31.95, 141.43 41.25 M141.43 41.25 C140.4 50.46, 135.38 56.5, 127.68 55 M141.43 41.25 C141.07 52.39, 137.64 54.82, 127.68 55 M127.68 55 C85.62 55.79, 45.9 56.06, 13.75 55 M127.68 55 C87.45 56.09, 46.58 56.4, 13.75 55 M13.75 55 C2.96 55.43, -0.51 50.11, 0 41.25 M13.75 55 C3.82 53.42, -1.41 50.25, 0 41.25 M0 41.25 C1.2 31.38, -1.81 23.14, 0 13.75 M0 41.25 C-0.34 29.61, 0.45 19.63, 0 13.75 M0 13.75 C-0.85 6.55, 6.25 1.3, 13.75 0 M0 13.75 C0.86 5.96, 6.29 0.16, 13.75 0" stroke="#1e1e1e" stroke-width="2" fill="none"></path></g><g transform="translate(1340.6012366158623 614.5714285714287) rotate(0 46.970191955566406 17.5)"><text x="46.970191955566406" y="0" font-family="Virgil, Segoe UI Emoji" font-size="28px" fill="#1e1e1e" text-anchor="middle" style="white-space: pre;" direction="ltr" dominant-baseline="text-before-edge">Label 1</text></g><g stroke-linecap="round" transform="translate(1321.1428571428576 648.8571428571433) rotate(0 70.71428571428578 27.5)"><path d="M13.75 0 C42.23 1.13, 71.05 -0.28, 127.68 0 M13.75 0 C57.97 0.44, 102.88 -0.16, 127.68 0 M127.68 0 C135 -0.77, 140.82 6.08, 141.43 13.75 M127.68 0 C135.58 1.59, 143.07 6.75, 141.43 13.75 M141.43 13.75 C142.17 23.29, 140.54 32.3, 141.43 41.25 M141.43 13.75 C141.1 23.3, 140.89 33.56, 141.43 41.25 M141.43 41.25 C141.12 52.13, 137.54 54.84, 127.68 55 M141.43 41.25 C142.69 50.36, 137.29 53.12, 127.68 55 M127.68 55 C91.32 55.65, 54.56 55.45, 13.75 55 M127.68 55 C91.48 55.69, 56.65 55.33, 13.75 55 M13.75 55 C3.92 53.63, -1.23 50.27, 0 41.25 M13.75 55 C5.54 55.04, 1.53 51.81, 0 41.25 M0 41.25 C2.2 32.41, -0.79 25.07, 0 13.75 M0 41.25 C-0.5 35.91, 0.76 29.26, 0 13.75 M0 13.75 C0.74 5.78, 6.07 0.14, 13.75 0 M0 13.75 C0.01 4.28, 2.42 0.15, 13.75 0" stroke="#1e1e1e" stroke-width="2" fill="none"></path></g><g transform="translate(1344.886950901577 658.8571428571433) rotate(0 46.970191955566406 17.5)"><text x="46.970191955566406" y="0" font-family="Virgil, Segoe UI Emoji" font-size="28px" fill="#1e1e1e" text-anchor="middle" style="white-space: pre;" direction="ltr" dominant-baseline="text-before-edge">Label 1</text></g><g stroke-linecap="round" transform="translate(1318.2857142857144 697.4285714285718) rotate(0 70.71428571428578 27.5)"><path d="M13.75 0 C58.59 -1.71, 99.09 -0.05, 127.68 0 M13.75 0 C46.75 0.33, 81.3 1.46, 127.68 0 M127.68 0 C135.75 1.38, 142.85 6.47, 141.43 13.75 M127.68 0 C138.44 0.59, 143.15 5.36, 141.43 13.75 M141.43 13.75 C142.23 22.54, 140.99 27.53, 141.43 41.25 M141.43 13.75 C141.07 22.92, 141.57 30.3, 141.43 41.25 M141.43 41.25 C142.52 50.37, 137.23 53.37, 127.68 55 M141.43 41.25 C142.08 49.35, 137.81 56.22, 127.68 55 M127.68 55 C92.72 53.65, 58.18 53.35, 13.75 55 M127.68 55 C90.73 54.14, 53.82 54.75, 13.75 55 M13.75 55 C5.41 55.03, 1.33 51.62, 0 41.25 M13.75 55 C4.03 52.92, 0.77 52.66, 0 41.25 M0 41.25 C-1.26 35.28, 0.65 27.36, 0 13.75 M0 41.25 C0.14 30.89, 0.51 19.41, 0 13.75 M0 13.75 C0.01 4.32, 2.7 0.13, 13.75 0 M0 13.75 C2.18 3.83, 4.99 0.79, 13.75 0" stroke="#1e1e1e" stroke-width="2" fill="none"></path></g><g transform="translate(1342.0298080444338 707.4285714285718) rotate(0 46.970191955566406 17.5)"><text x="46.970191955566406" y="0" font-family="Virgil, Segoe UI Emoji" font-size="28px" fill="#1e1e1e" text-anchor="middle" style="white-space: pre;" direction="ltr" dominant-baseline="text-before-edge">Label 1</text></g><g stroke-linecap="round"><g transform="translate(1044.7783600502214 453.51303316648864) rotate(0 128.57142857142867 -1.4285714285713311)"><path d="M-0.86 -0.25 C42 -0.6, 213.7 -2.48, 256.52 -2.78 M0.9 -1.43 C44.2 -1.5, 215.98 -0.78, 258.9 -1.2" stroke="#1e1e1e" stroke-width="2" fill="none"></path></g></g><mask></mask><g stroke-linecap="round"><g transform="translate(1054.7783600502214 459.2273188807744) rotate(0 114.28571428571445 19.285714285714334)"><path d="M-0.62 0.08 C37.44 6.69, 189.42 32.91, 227.5 39.39 M1.25 -0.93 C39.74 5.37, 191.47 31.41, 229.65 37.7" stroke="#1e1e1e" stroke-width="2" fill="none"></path></g></g><mask></mask><g stroke-linecap="round"><g transform="translate(1054.7783600502214 467.79874745220286) rotate(0 123.57142857142867 37.14285714285711)"><path d="M-1.07 0.82 C40.11 13.25, 205.16 62.59, 246.43 74.67 M0.57 0.21 C42.19 12.26, 207.96 60.44, 248.76 72.75" stroke="#1e1e1e" stroke-width="2" fill="none"></path></g></g><mask></mask><g stroke-linecap="round"><g transform="translate(1063.3497886216503 609.2273188807746) rotate(0 124.28571428571445 3.571428571428669)"><path d="M0.38 0.35 C41.75 1.83, 206.97 6.67, 248.52 7.79 M-0.88 -0.52 C40.31 0.71, 205.82 4.53, 247.54 6.01" stroke="#1e1e1e" stroke-width="2" fill="none"></path></g></g><mask></mask><g stroke-linecap="round"><g transform="translate(1063.3497886216503 609.2273188807746) rotate(0 115.00000000000023 27.14285714285711)"><path d="M-0.05 0.65 C38.4 9.63, 192.67 45.37, 231.07 54.23 M-1.54 -0.05 C36.81 9.1, 192.13 46.59, 230.69 55.74" stroke="#1e1e1e" stroke-width="2" fill="none"></path></g></g><mask></mask><g stroke-linecap="round"><g transform="translate(1060.4926457645076 620.6558903093458) rotate(0 125.71428571428578 43.571428571428555)"><path d="M1.07 -0.05 C43.05 14.29, 209.97 71.97, 251.81 86.68 M0.17 -1.13 C42.03 13.32, 209.14 73.39, 251.06 87.97" stroke="#1e1e1e" stroke-width="2" fill="none"></path></g></g><mask></mask><g stroke-linecap="round"><g transform="translate(662.5714285714287 863.1428571428576) rotate(0 317.1428571428571 -179.28571428571433)"><path d="M-0.05 0.88 C105.73 -58.83, 529.49 -299.45, 635.22 -359.27 M-1.54 0.3 C104.13 -59.19, 528.91 -298.03, 634.77 -358.1" stroke="#846358" stroke-width="2" fill="none"></path></g></g><mask></mask><g stroke-linecap="round"><g transform="translate(668.285714285714 864.5714285714289) rotate(0 313.57142857142867 -155.71428571428567)"><path d="M-1.02 -0.19 C103.41 -51.91, 522.3 -258.58, 627.19 -310.38 M0.64 -1.34 C104.87 -53.36, 521.68 -259.99, 626.27 -311.95" stroke="#846358" stroke-width="2" fill="none"></path></g></g><mask></mask><g stroke-linecap="round"><g transform="translate(672.5714285714287 863.1428571428576) rotate(0 318.57142857142844 -100)"><path d="M-1.14 0.89 C105.12 -32.6, 531.69 -167.29, 638 -200.62 M0.46 0.31 C106.61 -33.05, 531.63 -165.86, 637.51 -199.41" stroke="#846358" stroke-width="2" fill="none"></path></g></g><mask></mask><g stroke-linecap="round"><g transform="translate(665.4285714285713 868.8571428571431) rotate(0 317.1428571428571 -77.14285714285711)"><path d="M0.81 0.78 C106.33 -24.89, 528.08 -127.59, 633.57 -153.57 M-0.23 0.15 C105.65 -25.91, 530.42 -129.59, 635.9 -155.32" stroke="#846358" stroke-width="2" fill="none"></path></g></g><mask></mask><g stroke-linecap="round" transform="translate(1322.5714285714282 786.0000000000002) rotate(0 70.71428571428578 27.5)"><path d="M13.75 0 C49.43 -0.22, 86.92 0.76, 127.68 0 M13.75 0 C45.72 0, 77.68 -1.67, 127.68 0 M127.68 0 C135.24 -0.7, 141.17 3.59, 141.43 13.75 M127.68 0 C139.03 -0.07, 142.6 6.07, 141.43 13.75 M141.43 13.75 C141.49 24.15, 141.91 35.09, 141.43 41.25 M141.43 13.75 C141.94 25.56, 142.14 36.33, 141.43 41.25 M141.43 41.25 C140.77 49.49, 138.7 55.12, 127.68 55 M141.43 41.25 C140.4 52.51, 137.13 53.23, 127.68 55 M127.68 55 C96.84 56.38, 61.45 53.68, 13.75 55 M127.68 55 C100.91 55.24, 76.89 56.16, 13.75 55 M13.75 55 C5.86 54.19, 0.22 49.26, 0 41.25 M13.75 55 C3.06 53.21, 0.44 50.12, 0 41.25 M0 41.25 C0.14 32.69, 2.15 28.29, 0 13.75 M0 41.25 C0.15 35.55, -0.87 27.82, 0 13.75 M0 13.75 C-0.29 4.47, 3.4 -1.46, 13.75 0 M0 13.75 C-1.27 5.05, 4.49 -1.05, 13.75 0" stroke="#1e1e1e" stroke-width="2" fill="none"></path></g><g transform="translate(1346.3155223301476 796.0000000000002) rotate(0 46.970191955566406 17.5)"><text x="46.970191955566406" y="0" font-family="Virgil, Segoe UI Emoji" font-size="28px" fill="#1e1e1e" text-anchor="middle" style="white-space: pre;" direction="ltr" dominant-baseline="text-before-edge">Label 1</text></g><g stroke-linecap="round" transform="translate(1326.857142857143 830.2857142857149) rotate(0 70.71428571428578 27.5)"><path d="M13.75 0 C49.04 -0.12, 86.26 -0.96, 127.68 0 M13.75 0 C54.89 0.78, 97.52 0.63, 127.68 0 M127.68 0 C138.74 -0.06, 142.44 5.88, 141.43 13.75 M127.68 0 C138.78 -2.24, 140.88 4.96, 141.43 13.75 M141.43 13.75 C143.4 22.93, 140.99 30.52, 141.43 41.25 M141.43 13.75 C141.25 24.26, 142.51 35.77, 141.43 41.25 M141.43 41.25 C140.54 52.24, 137.09 53.46, 127.68 55 M141.43 41.25 C141.08 51.85, 136.63 56.85, 127.68 55 M127.68 55 C83.54 55.87, 44.06 52.38, 13.75 55 M127.68 55 C102.56 54.8, 76.28 54.63, 13.75 55 M13.75 55 C3.26 53.44, 0.39 50.15, 0 41.25 M13.75 55 C3.72 53.29, 2.27 50.34, 0 41.25 M0 41.25 C-1.63 34.09, -0.67 28.54, 0 13.75 M0 41.25 C0.12 31.09, -0.33 20.32, 0 13.75 M0 13.75 C-1.11 4.99, 4.5 -0.91, 13.75 0 M0 13.75 C1.02 3.82, 2.83 0.46, 13.75 0" stroke="#1e1e1e" stroke-width="2" fill="none"></path></g><g transform="translate(1350.6012366158623 840.2857142857149) rotate(0 46.970191955566406 17.5)"><text x="46.970191955566406" y="0" font-family="Virgil, Segoe UI Emoji" font-size="28px" fill="#1e1e1e" text-anchor="middle" style="white-space: pre;" direction="ltr" dominant-baseline="text-before-edge">Label 1</text></g><g stroke-linecap="round" transform="translate(1323.9999999999998 878.8571428571433) rotate(0 70.71428571428578 27.5)"><path d="M13.75 0 C52.67 -0.4, 86.87 -1.47, 127.68 0 M13.75 0 C44.92 0.53, 74.7 1.21, 127.68 0 M127.68 0 C138.53 -1.95, 140.95 4.91, 141.43 13.75 M127.68 0 C136.66 0.87, 141.67 6.73, 141.43 13.75 M141.43 13.75 C143.34 24.7, 143.26 32.77, 141.43 41.25 M141.43 13.75 C141.24 21.63, 141.81 26.92, 141.43 41.25 M141.43 41.25 C141.12 51.66, 136.66 56.61, 127.68 55 M141.43 41.25 C143.14 48.88, 135.45 53.31, 127.68 55 M127.68 55 C83.14 55.56, 41.93 55.18, 13.75 55 M127.68 55 C97.48 53.56, 68.8 54.21, 13.75 55 M13.75 55 C3.83 53.51, 1.97 50.35, 0 41.25 M13.75 55 C3.04 57.24, 1.7 48.85, 0 41.25 M0 41.25 C1.4 32.09, -1.31 26.53, 0 13.75 M0 41.25 C-0.39 33.35, 0.12 24.6, 0 13.75 M0 13.75 C0.89 3.92, 3.06 0.4, 13.75 0 M0 13.75 C1.89 3.95, 2.6 -1.27, 13.75 0" stroke="#1e1e1e" stroke-width="2" fill="none"></path></g><g transform="translate(1347.7440937587191 888.8571428571433) rotate(0 46.970191955566406 17.5)"><text x="46.970191955566406" y="0" font-family="Virgil, Segoe UI Emoji" font-size="28px" fill="#1e1e1e" text-anchor="middle" style="white-space: pre;" direction="ltr" dominant-baseline="text-before-edge">Label 1</text></g><g stroke-linecap="round"><g transform="translate(672.5714285714287 873.1428571428576) rotate(0 310 -38.57142857142867)"><path d="M1.09 -1.1 C104.35 -14, 515.91 -65.48, 619.18 -78.22 M0.2 0.93 C103.88 -11.79, 518.11 -64.35, 621.46 -77.25" stroke="#846358" stroke-width="2" fill="none"></path></g></g><mask></mask><g stroke-linecap="round"><g transform="translate(661.1428571428571 857.4285714285718) rotate(0 327.1428571428571 -4.285714285714334)"><path d="M-1.04 -0.02 C108 -1.75, 544.22 -8.43, 653.51 -9.76 M0.61 -1.07 C110.11 -2.76, 546.89 -7.36, 655.81 -8.85" stroke="#846358" stroke-width="2" fill="none"></path></g></g><mask></mask><g stroke-linecap="round"><g transform="translate(675.4285714285713 870.2857142857147) rotate(0 317.8571428571429 12.857142857142776)"><path d="M-0.69 0.23 C105.35 4.55, 529.97 22.49, 636.18 26.62 M1.15 -0.7 C107.08 3.24, 529.63 20.53, 635.48 24.98" stroke="#846358" stroke-width="2" fill="none"></path></g></g><mask></mask><g stroke-linecap="round" transform="translate(1338.092511818717 1021.7142857142859) rotate(0 70.71428571428567 27.5)"><path d="M13.75 0 C42.63 1.24, 69.24 0.04, 127.68 0 M13.75 0 C49.48 0.54, 85.16 -0.74, 127.68 0 M127.68 0 C135.25 1, 142.47 3.96, 141.43 13.75 M127.68 0 C136.41 0.51, 140.47 3.88, 141.43 13.75 M141.43 13.75 C142.06 23.72, 142 32.43, 141.43 41.25 M141.43 13.75 C142.54 23.1, 141.63 31.29, 141.43 41.25 M141.43 41.25 C141.41 51.34, 136.15 54.81, 127.68 55 M141.43 41.25 C141.21 49.43, 134.83 53.24, 127.68 55 M127.68 55 C90.14 53.66, 50.63 53.63, 13.75 55 M127.68 55 C93.4 55.5, 57.37 56.53, 13.75 55 M13.75 55 C4.68 53.71, -1.18 52.23, 0 41.25 M13.75 55 C5.78 55.84, 0.97 50.11, 0 41.25 M0 41.25 C-0.85 33.57, -1.44 29.97, 0 13.75 M0 41.25 C-1.05 34.08, -1.19 28.1, 0 13.75 M0 13.75 C-0.24 6.31, 6.37 -0.88, 13.75 0 M0 13.75 C0.65 6.25, 5.92 -2.23, 13.75 0" stroke="#1e1e1e" stroke-width="2" fill="none"></path></g><g transform="translate(1361.8366055774363 1031.7142857142858) rotate(0 46.970191955566406 17.5)"><text x="46.970191955566406" y="0" font-family="Virgil, Segoe UI Emoji" font-size="28px" fill="#1e1e1e" text-anchor="middle" style="white-space: pre;" direction="ltr" dominant-baseline="text-before-edge">Label 1</text></g><g stroke-linecap="round" transform="translate(1342.3782261044316 1066.0000000000005) rotate(0 70.71428571428567 27.5)"><path d="M13.75 0 C49.3 -0.71, 84.13 0.99, 127.68 0 M13.75 0 C51.56 1.51, 91.49 0.7, 127.68 0 M127.68 0 C136.46 0.44, 140.6 3.97, 141.43 13.75 M127.68 0 C138.46 -1.2, 140.63 5.47, 141.43 13.75 M141.43 13.75 C141.87 23.24, 139.73 31.48, 141.43 41.25 M141.43 13.75 C141.42 24.18, 141.08 33.58, 141.43 41.25 M141.43 41.25 C141.24 49.56, 135.09 53.47, 127.68 55 M141.43 41.25 C142.49 52.69, 134.88 57.17, 127.68 55 M127.68 55 C95.72 55.71, 64.87 55.8, 13.75 55 M127.68 55 C96.44 55.24, 64.51 56.79, 13.75 55 M13.75 55 C5.62 55.73, 0.84 50.15, 0 41.25 M13.75 55 C3.16 55.98, 0.42 49.58, 0 41.25 M0 41.25 C-1.14 36.2, -1.69 26.2, 0 13.75 M0 41.25 C0.15 35.88, 1.16 28.34, 0 13.75 M0 13.75 C0.56 6.03, 5.74 -1.94, 13.75 0 M0 13.75 C-0.06 5.98, 3.69 1.63, 13.75 0" stroke="#1e1e1e" stroke-width="2" fill="none"></path></g><g transform="translate(1366.122319863151 1076.0000000000005) rotate(0 46.970191955566406 17.5)"><text x="46.970191955566406" y="0" font-family="Virgil, Segoe UI Emoji" font-size="28px" fill="#1e1e1e" text-anchor="middle" style="white-space: pre;" direction="ltr" dominant-baseline="text-before-edge">Label 1</text></g><g stroke-linecap="round" transform="translate(1339.5210832472885 1114.571428571429) rotate(0 70.71428571428567 27.5)"><path d="M13.75 0 C41.4 0.48, 65.72 -1.83, 127.68 0 M13.75 0 C53.42 0.57, 93.07 0.05, 127.68 0 M127.68 0 C138.25 -1.04, 140.73 5.35, 141.43 13.75 M127.68 0 C136.61 0.83, 139.5 4.98, 141.43 13.75 M141.43 13.75 C142.43 24.08, 141.38 34.41, 141.43 41.25 M141.43 13.75 C141.24 22.85, 140.46 32.03, 141.43 41.25 M141.43 41.25 C142.35 52.39, 135.14 56.88, 127.68 55 M141.43 41.25 C141 52.49, 136.39 55.12, 127.68 55 M127.68 55 C87.64 54.13, 50.17 55.68, 13.75 55 M127.68 55 C101.38 56.4, 74.47 55.9, 13.75 55 M13.75 55 C3.35 55.85, 0.36 49.69, 0 41.25 M13.75 55 C3.29 53.48, 2.09 48.9, 0 41.25 M0 41.25 C-1.21 28.8, -0.31 19.97, 0 13.75 M0 41.25 C0.04 31.35, 0.33 19.03, 0 13.75 M0 13.75 C-0.05 5.8, 3.8 1.42, 13.75 0 M0 13.75 C2.07 3.25, 6.53 -1.53, 13.75 0" stroke="#1e1e1e" stroke-width="2" fill="none"></path></g><g transform="translate(1363.265177006008 1124.571428571429) rotate(0 46.970191955566406 17.5)"><text x="46.970191955566406" y="0" font-family="Virgil, Segoe UI Emoji" font-size="28px" fill="#1e1e1e" text-anchor="middle" style="white-space: pre;" direction="ltr" dominant-baseline="text-before-edge">Label 1</text></g><g stroke-linecap="round"><g transform="translate(688.0925118187174 1108.8571428571431) rotate(0 310 -38.57142857142861)"><path d="M-0.96 0.6 C102.41 -12.14, 517.17 -64.6, 620.62 -77.51 M0.74 -0.13 C103.97 -12.61, 516.98 -63.62, 620 -76.17" stroke="#1971c2" stroke-width="2" fill="none"></path></g></g><mask></mask><g stroke-linecap="round"><g transform="translate(699.5210832472885 1108.8571428571431) rotate(0 315.7142857142858 -12.14285714285711)"><path d="M0.62 -0.37 C105.98 -4.48, 526.15 -19.97, 631.2 -24.02 M-0.51 -1.61 C104.76 -6.15, 525.06 -22.35, 630.13 -26.01" stroke="#1971c2" stroke-width="2" fill="none"></path></g></g><mask></mask><g stroke-linecap="round"><g transform="translate(690.9496546758601 1106.0000000000005) rotate(0 317.8571428571429 12.857142857142776)"><path d="M-0.23 0.26 C105.54 4.55, 529.09 21.21, 635.22 25.35 M-1.81 -0.64 C103.7 3.85, 527.67 22.24, 634.01 26.69" stroke="#1971c2" stroke-width="2" fill="none"></path></g></g><mask></mask><g stroke-linecap="round"><g transform="translate(656.8571428571429 451.714285714286) rotate(0 109.28571428571422 -157.1428571428571)"><path d="M0.19 0.05 C36.62 -52.54, 181.66 -262.59, 218.24 -314.81 M-1.17 -0.97 C35.1 -53.47, 180.34 -261.19, 217.12 -313.55" stroke="#e03131" stroke-width="2" fill="none"></path></g></g><mask></mask><g stroke-linecap="round"><g transform="translate(666.8571428571429 453.14285714285757) rotate(0 105.71428571428555 -112.14285714285711)"><path d="M-0.58 0.26 C34.81 -37.3, 175.8 -187.25, 211.16 -224.53 M1.32 -0.65 C36.63 -38.1, 175.14 -185.68, 210.07 -223.12" stroke="#e03131" stroke-width="2" fill="none"></path></g></g><mask></mask><g stroke-linecap="round"><g transform="translate(662.5714285714287 457.4285714285718) rotate(0 108.57142857142844 -69.28571428571422)"><path d="M-0.5 -0.68 C35.57 -23.82, 180.53 -115.96, 216.79 -138.95 M1.44 1.58 C37.28 -21.39, 179.85 -114.46, 215.65 -137.62" stroke="#e03131" stroke-width="2" fill="none"></path></g></g><mask></mask><g stroke-linecap="round"><g transform="translate(659.7142857142856 460.28571428571445) rotate(0 113.57142857142867 -3.5714285714284415)"><path d="M0.53 -1.19 C38.56 -2.21, 190.19 -5.82, 227.83 -6.92 M-0.64 0.8 C37.32 -0.54, 188.99 -7.66, 227.24 -8.93" stroke="#e03131" stroke-width="2" fill="none"></path></g></g><mask></mask><g stroke-linecap="round"><g transform="translate(658.285714285714 466.0000000000002) rotate(0 120.71428571428578 67.85714285714289)"><path d="M0.04 0.35 C40.24 22.68, 200.4 112.07, 240.61 134.54 M-1.4 -0.5 C39.23 21.87, 202.58 112.68, 242.89 135.46" stroke="#e03131" stroke-width="2" fill="none"></path></g></g><mask></mask><g stroke-linecap="round"><g transform="translate(236.85714285714278 698.8571428571433) rotate(0 131.42857142857144 -124.28571428571422)"><path d="M-1.17 0.78 C42.65 -40.96, 217.87 -208.36, 261.95 -249.75 M0.41 0.14 C44.7 -41.56, 220.46 -207.25, 264.19 -248.84" stroke="#f08c00" stroke-width="2" fill="none"></path></g></g><mask></mask><g stroke-linecap="round"><g transform="translate(241.142857142857 701.714285714286) rotate(0 131.42857142857144 76.42857142857144)"><path d="M-0.35 1.01 C43.58 26.33, 219.22 127.31, 262.9 152.78 M1.67 0.5 C45.5 25.93, 218.24 129.03, 261.98 154.28" stroke="#f08c00" stroke-width="2" fill="none"></path></g></g><mask></mask><g stroke-linecap="round"><g transform="translate(236.85714285714278 713.1428571428576) rotate(0 135 187.85714285714283)"><path d="M0.33 0.8 C45.53 63.69, 226.02 314.56, 271.01 376.89 M-0.96 0.18 C44.19 62.8, 225.49 312.81, 270.6 375.39" stroke="#f08c00" stroke-width="2" fill="none"></path></g></g><mask></mask><g transform="translate(1463.9999999999998 90.00000000000023) rotate(0 15 82)" stroke="none"><path fill="#099268" d="M 0,-1.74 Q 0,-1.74 2.3,-1.68 4.6,-1.62 6.72,-1.58 8.85,-1.53 11.48,-1.50 14.12,-1.47 16.59,-0.84 19.05,-0.20 20.35,0.65 21.65,1.52 22.79,2.56 23.94,3.60 24.50,9.04 25.06,14.47 25.19,20.09 25.32,25.71 25.36,29.81 25.40,33.92 25.40,36.81 25.41,39.71 25.40,42.09 25.39,44.47 25.48,46.03 25.57,47.58 26.16,48.50 26.76,49.42 27.10,51.33 27.45,53.25 27.55,55.18 27.65,57.12 28.19,58.86 28.73,60.61 28.97,63.33 29.21,66.06 29.38,67.74 29.55,69.43 29.61,71.31 29.66,73.19 30.19,74.92 30.72,76.64 30.98,78.76 31.25,80.87 31.32,83.50 31.39,86.14 31.40,88.97 31.41,91.81 31.41,95.31 31.41,98.82 31.41,100.88 31.42,102.94 31.41,106.12 31.39,109.30 31.38,111.80 31.37,114.30 31.36,116.51 31.35,118.72 31.46,120.24 31.56,121.75 31.60,123.55 31.63,125.34 31.72,126.68 31.81,128.02 31.90,129.16 31.99,130.30 32.06,131.37 32.14,132.43 32.15,134.03 32.15,135.63 32.11,137.46 32.08,139.29 32.12,140.64 32.17,142.00 32.23,143.15 32.28,144.30 32.34,145.36 32.39,146.42 32.45,148.55 32.52,150.67 31.82,152.23 31.13,153.78 31.00,155.29 30.87,156.80 30.63,159.12 30.38,161.45 29.57,162.44 28.75,163.43 25.96,164.79 23.16,166.16 20.49,166.14 17.82,166.12 14.95,166.26 12.08,166.40 11.69,166.35 11.31,166.30 10.96,166.13 10.61,165.96 10.33,165.69 10.05,165.42 9.87,165.07 9.70,164.72 9.64,164.34 9.59,163.95 9.66,163.57 9.73,163.18 9.92,162.84 10.10,162.50 10.39,162.24 10.68,161.98 11.04,161.82 11.39,161.66 11.78,161.63 12.17,161.59 12.55,161.68 12.93,161.77 13.26,161.98 13.59,162.19 13.84,162.49 14.08,162.79 14.22,163.16 14.36,163.52 14.37,163.91 14.39,164.30 14.27,164.67 14.16,165.05 13.94,165.37 13.71,165.69 13.40,165.92 13.08,166.15 12.71,166.26 12.34,166.38 11.95,166.37 11.56,166.37 11.19,166.23 10.83,166.10 10.52,165.86 10.21,165.62 10.00,165.29 9.79,164.97 9.69,164.59 9.59,164.21 9.62,163.82 9.65,163.43 9.80,163.07 9.95,162.71 10.21,162.42 10.47,162.13 10.81,161.93 11.15,161.74 11.53,161.66 11.91,161.59 11.91,161.59 11.91,161.59 14.74,161.52 17.57,161.46 19.90,161.17 22.24,160.88 23.51,160.90 24.78,160.92 25.03,159.66 25.28,158.39 25.36,157.31 25.43,156.23 25.59,155.06 25.76,153.88 26.61,152.11 27.47,150.33 27.54,148.38 27.60,146.42 27.65,145.36 27.71,144.30 27.76,143.15 27.82,142.00 27.87,140.64 27.91,139.29 27.88,137.46 27.84,135.63 27.84,134.03 27.85,132.43 27.93,131.37 28.00,130.30 28.09,129.16 28.18,128.02 28.27,126.68 28.35,125.34 28.39,123.55 28.43,121.76 28.53,120.24 28.63,118.72 28.62,116.51 28.61,114.30 28.60,111.80 28.59,109.30 28.57,106.13 28.55,102.95 28.54,100.89 28.53,98.83 28.48,95.35 28.44,91.86 28.36,89.06 28.28,86.27 28.14,83.78 27.99,81.29 27.75,79.45 27.51,77.62 26.85,75.47 26.19,73.31 26.15,71.49 26.11,69.66 26.05,68.02 26.00,66.39 25.72,64.02 25.43,61.64 24.73,59.50 24.03,57.36 23.92,55.57 23.81,53.78 23.67,52.32 23.52,50.87 22.97,49.30 22.41,47.72 22.48,46.10 22.56,44.49 22.52,42.11 22.49,39.74 22.43,36.86 22.37,33.97 22.26,29.89 22.14,25.81 21.92,20.28 21.69,14.76 21.41,10.21 21.14,5.66 19.68,4.08 18.23,2.50 16.16,1.99 14.10,1.47 11.47,1.50 8.85,1.53 6.72,1.58 4.6,1.62 2.3,1.68 0,1.74 -0.20,1.71 -0.41,1.68 -0.61,1.61 -0.80,1.54 -0.98,1.42 -1.15,1.30 -1.29,1.14 -1.43,0.98 -1.52,0.80 -1.62,0.61 -1.67,0.41 -1.72,0.20 -1.72,-0.00 -1.72,-0.20 -1.67,-0.41 -1.62,-0.61 -1.52,-0.80 -1.43,-0.98 -1.29,-1.14 -1.15,-1.30 -0.98,-1.42 -0.80,-1.54 -0.61,-1.61 -0.41,-1.68 -0.20,-1.71 0.00,-1.74 0.00,-1.74 L 0,-1.74 Z"></path></g><g transform="translate(1456.9999999999998 286.0000000000002) rotate(0 15 66)" stroke="none"><path fill="#099268" d="M 0,-1.75 Q 0,-1.75 2.3,-1.69 4.6,-1.63 6.72,-1.58 8.85,-1.54 11.48,-1.51 14.11,-1.48 16.54,-0.97 18.97,-0.46 20.24,0.20 21.51,0.86 22.70,1.76 23.89,2.65 24.49,7.12 25.08,11.59 25.21,16.13 25.34,20.67 25.37,23.98 25.41,27.29 25.41,29.62 25.41,31.95 25.46,33.87 25.50,35.79 25.59,37.01 25.69,38.23 26.66,40.47 27.64,42.71 27.78,44.30 27.93,45.89 28.48,47.17 29.03,48.44 29.27,50.75 29.51,53.06 29.69,54.43 29.87,55.80 29.95,57.33 30.03,58.85 30.56,60.10 31.09,61.34 31.40,63.13 31.72,64.92 31.75,67.10 31.78,69.28 31.74,71.58 31.70,73.88 31.66,76.70 31.62,79.53 31.68,81.19 31.73,82.85 31.68,85.41 31.62,87.97 31.61,89.98 31.60,92.00 31.63,93.78 31.67,95.56 31.76,96.78 31.86,98.00 31.92,99.44 31.97,100.88 32.05,101.96 32.13,103.04 32.26,104.81 32.39,106.59 32.42,107.87 32.44,109.16 32.44,110.64 32.43,112.11 32.47,113.20 32.51,114.29 32.60,116.07 32.68,117.85 32.70,119.64 32.72,121.44 31.96,122.90 31.19,124.36 31.12,126.06 31.05,127.75 30.70,129.11 30.34,130.47 29.51,131.35 28.68,132.22 25.89,133.32 23.10,134.42 20.45,134.35 17.80,134.28 15.45,134.40 13.10,134.52 12.69,134.47 12.28,134.41 11.91,134.23 11.54,134.04 11.24,133.75 10.95,133.46 10.77,133.09 10.58,132.72 10.53,132.31 10.47,131.90 10.55,131.49 10.62,131.09 10.83,130.73 11.03,130.37 11.34,130.09 11.64,129.81 12.02,129.65 12.40,129.49 12.82,129.45 13.23,129.42 13.63,129.52 14.03,129.62 14.38,129.84 14.73,130.06 14.99,130.38 15.25,130.70 15.39,131.09 15.53,131.48 15.55,131.89 15.56,132.31 15.44,132.70 15.32,133.10 15.08,133.43 14.83,133.77 14.50,134.01 14.16,134.25 13.77,134.38 13.37,134.50 12.96,134.49 12.55,134.48 12.16,134.33 11.77,134.19 11.45,133.93 11.12,133.67 10.90,133.33 10.68,132.98 10.58,132.58 10.48,132.18 10.51,131.76 10.54,131.35 10.71,130.97 10.87,130.59 11.14,130.28 11.42,129.98 11.78,129.77 12.14,129.57 12.55,129.49 12.95,129.41 12.95,129.41 12.95,129.41 15.27,129.40 17.59,129.38 19.95,129.09 22.31,128.81 23.69,128.11 25.07,127.42 25.32,125.47 25.57,123.53 26.42,122.18 27.27,120.83 27.29,119.34 27.31,117.85 27.39,116.07 27.48,114.29 27.52,113.20 27.56,112.11 27.55,110.64 27.55,109.16 27.57,107.87 27.60,106.59 27.73,104.81 27.86,103.04 27.94,101.96 28.02,100.89 28.07,99.44 28.13,98.00 28.22,96.78 28.32,95.56 28.35,93.78 28.39,92.00 28.37,89.99 28.36,87.97 28.29,85.42 28.23,82.87 28.27,81.21 28.32,79.55 28.24,76.75 28.15,73.95 28.02,71.72 27.90,69.48 27.71,67.54 27.52,65.59 27.33,64.21 27.14,62.82 26.48,60.94 25.82,59.06 25.81,57.60 25.79,56.14 25.75,54.84 25.70,53.55 25.41,51.75 25.13,49.95 24.44,48.10 23.75,46.24 23.69,44.84 23.63,43.43 23.55,42.36 23.47,41.28 22.87,39.88 22.28,38.47 22.37,37.14 22.45,35.81 22.47,33.90 22.48,31.99 22.42,29.67 22.36,27.36 22.24,24.08 22.13,20.80 21.90,16.37 21.67,11.94 21.43,8.37 21.19,4.80 19.75,3.55 18.31,2.31 16.21,1.89 14.10,1.48 11.48,1.51 8.85,1.54 6.72,1.58 4.6,1.63 2.3,1.69 0,1.75 -0.20,1.72 -0.41,1.69 -0.61,1.62 -0.81,1.54 -0.98,1.43 -1.16,1.31 -1.30,1.15 -1.44,0.99 -1.53,0.80 -1.63,0.62 -1.68,0.41 -1.73,0.21 -1.73,-0.00 -1.73,-0.21 -1.68,-0.41 -1.63,-0.62 -1.53,-0.80 -1.44,-0.99 -1.30,-1.15 -1.16,-1.31 -0.98,-1.43 -0.81,-1.55 -0.61,-1.62 -0.41,-1.69 -0.20,-1.72 0.00,-1.75 0.00,-1.75 L 0,-1.75 Z"></path></g><g transform="translate(1460.9999999999998 438.0000000000002) rotate(0 15 66)" stroke="none"><path fill="#099268" d="M 0,-1.75 Q 0,-1.75 2.3,-1.69 4.6,-1.63 6.72,-1.58 8.85,-1.54 11.48,-1.51 14.11,-1.48 16.54,-0.97 18.97,-0.46 20.24,0.20 21.51,0.86 22.70,1.76 23.89,2.65 24.49,7.12 25.08,11.59 25.21,16.13 25.34,20.67 25.37,23.98 25.41,27.29 25.41,29.62 25.41,31.95 25.46,33.87 25.50,35.79 25.59,37.01 25.69,38.23 26.66,40.47 27.64,42.71 27.78,44.30 27.93,45.89 28.48,47.17 29.03,48.44 29.27,50.75 29.51,53.06 29.69,54.43 29.87,55.80 29.95,57.33 30.03,58.85 30.56,60.10 31.09,61.34 31.40,63.13 31.72,64.92 31.75,67.10 31.78,69.28 31.74,71.58 31.70,73.88 31.66,76.70 31.62,79.53 31.68,81.19 31.73,82.85 31.68,85.41 31.62,87.97 31.61,89.98 31.60,92.00 31.63,93.78 31.67,95.56 31.76,96.78 31.86,98.00 31.92,99.44 31.97,100.88 32.05,101.96 32.13,103.04 32.26,104.81 32.39,106.59 32.42,107.87 32.44,109.16 32.44,110.64 32.43,112.11 32.47,113.20 32.51,114.29 32.60,116.07 32.68,117.85 32.70,119.64 32.72,121.44 31.96,122.90 31.19,124.36 31.12,126.06 31.05,127.75 30.70,129.11 30.34,130.47 29.51,131.35 28.68,132.22 25.89,133.32 23.10,134.42 20.45,134.35 17.80,134.28 15.45,134.40 13.10,134.52 12.69,134.47 12.28,134.41 11.91,134.23 11.54,134.04 11.24,133.75 10.95,133.46 10.77,133.09 10.58,132.72 10.53,132.31 10.47,131.90 10.55,131.49 10.62,131.09 10.83,130.73 11.03,130.37 11.34,130.09 11.64,129.81 12.02,129.65 12.40,129.49 12.82,129.45 13.23,129.42 13.63,129.52 14.03,129.62 14.38,129.84 14.73,130.06 14.99,130.38 15.25,130.70 15.39,131.09 15.53,131.48 15.55,131.89 15.56,132.31 15.44,132.70 15.32,133.10 15.08,133.43 14.83,133.77 14.50,134.01 14.16,134.25 13.77,134.38 13.37,134.50 12.96,134.49 12.55,134.48 12.16,134.33 11.77,134.19 11.45,133.93 11.12,133.67 10.90,133.33 10.68,132.98 10.58,132.58 10.48,132.18 10.51,131.76 10.54,131.35 10.71,130.97 10.87,130.59 11.14,130.28 11.42,129.98 11.78,129.77 12.14,129.57 12.55,129.49 12.95,129.41 12.95,129.41 12.95,129.41 15.27,129.40 17.59,129.38 19.95,129.09 22.31,128.81 23.69,128.11 25.07,127.42 25.32,125.47 25.57,123.53 26.42,122.18 27.27,120.83 27.29,119.34 27.31,117.85 27.39,116.07 27.48,114.29 27.52,113.20 27.56,112.11 27.55,110.64 27.55,109.16 27.57,107.87 27.60,106.59 27.73,104.81 27.86,103.04 27.94,101.96 28.02,100.89 28.07,99.44 28.13,98.00 28.22,96.78 28.32,95.56 28.35,93.78 28.39,92.00 28.37,89.99 28.36,87.97 28.29,85.42 28.23,82.87 28.27,81.21 28.32,79.55 28.24,76.75 28.15,73.95 28.02,71.72 27.90,69.48 27.71,67.54 27.52,65.59 27.33,64.21 27.14,62.82 26.48,60.94 25.82,59.06 25.81,57.60 25.79,56.14 25.75,54.84 25.70,53.55 25.41,51.75 25.13,49.95 24.44,48.10 23.75,46.24 23.69,44.84 23.63,43.43 23.55,42.36 23.47,41.28 22.87,39.88 22.28,38.47 22.37,37.14 22.45,35.81 22.47,33.90 22.48,31.99 22.42,29.67 22.36,27.36 22.24,24.08 22.13,20.80 21.90,16.37 21.67,11.94 21.43,8.37 21.19,4.80 19.75,3.55 18.31,2.31 16.21,1.89 14.10,1.48 11.48,1.51 8.85,1.54 6.72,1.58 4.6,1.63 2.3,1.69 0,1.75 -0.20,1.72 -0.41,1.69 -0.61,1.62 -0.81,1.54 -0.98,1.43 -1.16,1.31 -1.30,1.15 -1.44,0.99 -1.53,0.80 -1.63,0.62 -1.68,0.41 -1.73,0.21 -1.73,-0.00 -1.73,-0.21 -1.68,-0.41 -1.63,-0.62 -1.53,-0.80 -1.44,-0.99 -1.30,-1.15 -1.16,-1.31 -0.98,-1.43 -0.81,-1.55 -0.61,-1.62 -0.41,-1.69 -0.20,-1.72 0.00,-1.75 0.00,-1.75 L 0,-1.75 Z"></path></g><g transform="translate(1462.9999999999998 604.0000000000002) rotate(0 15 66)" stroke="none"><path fill="#099268" d="M 0,-1.75 Q 0,-1.75 2.3,-1.69 4.6,-1.63 6.72,-1.58 8.85,-1.54 11.48,-1.51 14.11,-1.48 16.54,-0.97 18.97,-0.46 20.24,0.20 21.51,0.86 22.70,1.76 23.89,2.65 24.49,7.12 25.08,11.59 25.21,16.13 25.34,20.67 25.37,23.98 25.41,27.29 25.41,29.62 25.41,31.95 25.46,33.87 25.50,35.79 25.59,37.01 25.69,38.23 26.66,40.47 27.64,42.71 27.78,44.30 27.93,45.89 28.48,47.17 29.03,48.44 29.27,50.75 29.51,53.06 29.69,54.43 29.87,55.80 29.95,57.33 30.03,58.85 30.56,60.10 31.09,61.34 31.40,63.13 31.72,64.92 31.75,67.10 31.78,69.28 31.74,71.58 31.70,73.88 31.66,76.70 31.62,79.53 31.68,81.19 31.73,82.85 31.68,85.41 31.62,87.97 31.61,89.98 31.60,92.00 31.63,93.78 31.67,95.56 31.76,96.78 31.86,98.00 31.92,99.44 31.97,100.88 32.05,101.96 32.13,103.04 32.26,104.81 32.39,106.59 32.42,107.87 32.44,109.16 32.44,110.64 32.43,112.11 32.47,113.20 32.51,114.29 32.60,116.07 32.68,117.85 32.70,119.64 32.72,121.44 31.96,122.90 31.19,124.36 31.12,126.06 31.05,127.75 30.70,129.11 30.34,130.47 29.51,131.35 28.68,132.22 25.89,133.32 23.10,134.42 20.45,134.35 17.80,134.28 15.45,134.40 13.10,134.52 12.69,134.47 12.28,134.41 11.91,134.23 11.54,134.04 11.24,133.75 10.95,133.46 10.77,133.09 10.58,132.72 10.53,132.31 10.47,131.90 10.55,131.49 10.62,131.09 10.83,130.73 11.03,130.37 11.34,130.09 11.64,129.81 12.02,129.65 12.40,129.49 12.82,129.45 13.23,129.42 13.63,129.52 14.03,129.62 14.38,129.84 14.73,130.06 14.99,130.38 15.25,130.70 15.39,131.09 15.53,131.48 15.55,131.89 15.56,132.31 15.44,132.70 15.32,133.10 15.08,133.43 14.83,133.77 14.50,134.01 14.16,134.25 13.77,134.38 13.37,134.50 12.96,134.49 12.55,134.48 12.16,134.33 11.77,134.19 11.45,133.93 11.12,133.67 10.90,133.33 10.68,132.98 10.58,132.58 10.48,132.18 10.51,131.76 10.54,131.35 10.71,130.97 10.87,130.59 11.14,130.28 11.42,129.98 11.78,129.77 12.14,129.57 12.55,129.49 12.95,129.41 12.95,129.41 12.95,129.41 15.27,129.40 17.59,129.38 19.95,129.09 22.31,128.81 23.69,128.11 25.07,127.42 25.32,125.47 25.57,123.53 26.42,122.18 27.27,120.83 27.29,119.34 27.31,117.85 27.39,116.07 27.48,114.29 27.52,113.20 27.56,112.11 27.55,110.64 27.55,109.16 27.57,107.87 27.60,106.59 27.73,104.81 27.86,103.04 27.94,101.96 28.02,100.89 28.07,99.44 28.13,98.00 28.22,96.78 28.32,95.56 28.35,93.78 28.39,92.00 28.37,89.99 28.36,87.97 28.29,85.42 28.23,82.87 28.27,81.21 28.32,79.55 28.24,76.75 28.15,73.95 28.02,71.72 27.90,69.48 27.71,67.54 27.52,65.59 27.33,64.21 27.14,62.82 26.48,60.94 25.82,59.06 25.81,57.60 25.79,56.14 25.75,54.84 25.70,53.55 25.41,51.75 25.13,49.95 24.44,48.10 23.75,46.24 23.69,44.84 23.63,43.43 23.55,42.36 23.47,41.28 22.87,39.88 22.28,38.47 22.37,37.14 22.45,35.81 22.47,33.90 22.48,31.99 22.42,29.67 22.36,27.36 22.24,24.08 22.13,20.80 21.90,16.37 21.67,11.94 21.43,8.37 21.19,4.80 19.75,3.55 18.31,2.31 16.21,1.89 14.10,1.48 11.48,1.51 8.85,1.54 6.72,1.58 4.6,1.63 2.3,1.69 0,1.75 -0.20,1.72 -0.41,1.69 -0.61,1.62 -0.81,1.54 -0.98,1.43 -1.16,1.31 -1.30,1.15 -1.44,0.99 -1.53,0.80 -1.63,0.62 -1.68,0.41 -1.73,0.21 -1.73,-0.00 -1.73,-0.21 -1.68,-0.41 -1.63,-0.62 -1.53,-0.80 -1.44,-0.99 -1.30,-1.15 -1.16,-1.31 -0.98,-1.43 -0.81,-1.55 -0.61,-1.62 -0.41,-1.69 -0.20,-1.72 0.00,-1.75 0.00,-1.75 L 0,-1.75 Z"></path></g><g transform="translate(1466.9999999999998 788.0000000000002) rotate(0 15 66)" stroke="none"><path fill="#099268" d="M 0,-1.75 Q 0,-1.75 2.3,-1.69 4.6,-1.63 6.72,-1.58 8.85,-1.54 11.48,-1.51 14.11,-1.48 16.54,-0.97 18.97,-0.46 20.24,0.20 21.51,0.86 22.70,1.76 23.89,2.65 24.49,7.12 25.08,11.59 25.21,16.13 25.34,20.67 25.37,23.98 25.41,27.29 25.41,29.62 25.41,31.95 25.46,33.87 25.50,35.79 25.59,37.01 25.69,38.23 26.66,40.47 27.64,42.71 27.78,44.30 27.93,45.89 28.48,47.17 29.03,48.44 29.27,50.75 29.51,53.06 29.69,54.43 29.87,55.80 29.95,57.33 30.03,58.85 30.56,60.10 31.09,61.34 31.40,63.13 31.72,64.92 31.75,67.10 31.78,69.28 31.74,71.58 31.70,73.88 31.66,76.70 31.62,79.53 31.68,81.19 31.73,82.85 31.68,85.41 31.62,87.97 31.61,89.98 31.60,92.00 31.63,93.78 31.67,95.56 31.76,96.78 31.86,98.00 31.92,99.44 31.97,100.88 32.05,101.96 32.13,103.04 32.26,104.81 32.39,106.59 32.42,107.87 32.44,109.16 32.44,110.64 32.43,112.11 32.47,113.20 32.51,114.29 32.60,116.07 32.68,117.85 32.70,119.64 32.72,121.44 31.96,122.90 31.19,124.36 31.12,126.06 31.05,127.75 30.70,129.11 30.34,130.47 29.51,131.35 28.68,132.22 25.89,133.32 23.10,134.42 20.45,134.35 17.80,134.28 15.45,134.40 13.10,134.52 12.69,134.47 12.28,134.41 11.91,134.23 11.54,134.04 11.24,133.75 10.95,133.46 10.77,133.09 10.58,132.72 10.53,132.31 10.47,131.90 10.55,131.49 10.62,131.09 10.83,130.73 11.03,130.37 11.34,130.09 11.64,129.81 12.02,129.65 12.40,129.49 12.82,129.45 13.23,129.42 13.63,129.52 14.03,129.62 14.38,129.84 14.73,130.06 14.99,130.38 15.25,130.70 15.39,131.09 15.53,131.48 15.55,131.89 15.56,132.31 15.44,132.70 15.32,133.10 15.08,133.43 14.83,133.77 14.50,134.01 14.16,134.25 13.77,134.38 13.37,134.50 12.96,134.49 12.55,134.48 12.16,134.33 11.77,134.19 11.45,133.93 11.12,133.67 10.90,133.33 10.68,132.98 10.58,132.58 10.48,132.18 10.51,131.76 10.54,131.35 10.71,130.97 10.87,130.59 11.14,130.28 11.42,129.98 11.78,129.77 12.14,129.57 12.55,129.49 12.95,129.41 12.95,129.41 12.95,129.41 15.27,129.40 17.59,129.38 19.95,129.09 22.31,128.81 23.69,128.11 25.07,127.42 25.32,125.47 25.57,123.53 26.42,122.18 27.27,120.83 27.29,119.34 27.31,117.85 27.39,116.07 27.48,114.29 27.52,113.20 27.56,112.11 27.55,110.64 27.55,109.16 27.57,107.87 27.60,106.59 27.73,104.81 27.86,103.04 27.94,101.96 28.02,100.89 28.07,99.44 28.13,98.00 28.22,96.78 28.32,95.56 28.35,93.78 28.39,92.00 28.37,89.99 28.36,87.97 28.29,85.42 28.23,82.87 28.27,81.21 28.32,79.55 28.24,76.75 28.15,73.95 28.02,71.72 27.90,69.48 27.71,67.54 27.52,65.59 27.33,64.21 27.14,62.82 26.48,60.94 25.82,59.06 25.81,57.60 25.79,56.14 25.75,54.84 25.70,53.55 25.41,51.75 25.13,49.95 24.44,48.10 23.75,46.24 23.69,44.84 23.63,43.43 23.55,42.36 23.47,41.28 22.87,39.88 22.28,38.47 22.37,37.14 22.45,35.81 22.47,33.90 22.48,31.99 22.42,29.67 22.36,27.36 22.24,24.08 22.13,20.80 21.90,16.37 21.67,11.94 21.43,8.37 21.19,4.80 19.75,3.55 18.31,2.31 16.21,1.89 14.10,1.48 11.48,1.51 8.85,1.54 6.72,1.58 4.6,1.63 2.3,1.69 0,1.75 -0.20,1.72 -0.41,1.69 -0.61,1.62 -0.81,1.54 -0.98,1.43 -1.16,1.31 -1.30,1.15 -1.44,0.99 -1.53,0.80 -1.63,0.62 -1.68,0.41 -1.73,0.21 -1.73,-0.00 -1.73,-0.21 -1.68,-0.41 -1.63,-0.62 -1.53,-0.80 -1.44,-0.99 -1.30,-1.15 -1.16,-1.31 -0.98,-1.43 -0.81,-1.55 -0.61,-1.62 -0.41,-1.69 -0.20,-1.72 0.00,-1.75 0.00,-1.75 L 0,-1.75 Z"></path></g><g transform="translate(1480.9999999999998 1022.0000000000002) rotate(0 15 66)" stroke="none"><path fill="#099268" d="M 0,-1.75 Q 0,-1.75 2.3,-1.69 4.6,-1.63 6.72,-1.58 8.85,-1.54 11.48,-1.51 14.11,-1.48 16.54,-0.97 18.97,-0.46 20.24,0.20 21.51,0.86 22.70,1.76 23.89,2.65 24.49,7.12 25.08,11.59 25.21,16.13 25.34,20.67 25.37,23.98 25.41,27.29 25.41,29.62 25.41,31.95 25.46,33.87 25.50,35.79 25.59,37.01 25.69,38.23 26.66,40.47 27.64,42.71 27.78,44.30 27.93,45.89 28.48,47.17 29.03,48.44 29.27,50.75 29.51,53.06 29.69,54.43 29.87,55.80 29.95,57.33 30.03,58.85 30.56,60.10 31.09,61.34 31.40,63.13 31.72,64.92 31.75,67.10 31.78,69.28 31.74,71.58 31.70,73.88 31.66,76.70 31.62,79.53 31.68,81.19 31.73,82.85 31.68,85.41 31.62,87.97 31.61,89.98 31.60,92.00 31.63,93.78 31.67,95.56 31.76,96.78 31.86,98.00 31.92,99.44 31.97,100.88 32.05,101.96 32.13,103.04 32.26,104.81 32.39,106.59 32.42,107.87 32.44,109.16 32.44,110.64 32.43,112.11 32.47,113.20 32.51,114.29 32.60,116.07 32.68,117.85 32.70,119.64 32.72,121.44 31.96,122.90 31.19,124.36 31.12,126.06 31.05,127.75 30.70,129.11 30.34,130.47 29.51,131.35 28.68,132.22 25.89,133.32 23.10,134.42 20.45,134.35 17.80,134.28 15.45,134.40 13.10,134.52 12.69,134.47 12.28,134.41 11.91,134.23 11.54,134.04 11.24,133.75 10.95,133.46 10.77,133.09 10.58,132.72 10.53,132.31 10.47,131.90 10.55,131.49 10.62,131.09 10.83,130.73 11.03,130.37 11.34,130.09 11.64,129.81 12.02,129.65 12.40,129.49 12.82,129.45 13.23,129.42 13.63,129.52 14.03,129.62 14.38,129.84 14.73,130.06 14.99,130.38 15.25,130.70 15.39,131.09 15.53,131.48 15.55,131.89 15.56,132.31 15.44,132.70 15.32,133.10 15.08,133.43 14.83,133.77 14.50,134.01 14.16,134.25 13.77,134.38 13.37,134.50 12.96,134.49 12.55,134.48 12.16,134.33 11.77,134.19 11.45,133.93 11.12,133.67 10.90,133.33 10.68,132.98 10.58,132.58 10.48,132.18 10.51,131.76 10.54,131.35 10.71,130.97 10.87,130.59 11.14,130.28 11.42,129.98 11.78,129.77 12.14,129.57 12.55,129.49 12.95,129.41 12.95,129.41 12.95,129.41 15.27,129.40 17.59,129.38 19.95,129.09 22.31,128.81 23.69,128.11 25.07,127.42 25.32,125.47 25.57,123.53 26.42,122.18 27.27,120.83 27.29,119.34 27.31,117.85 27.39,116.07 27.48,114.29 27.52,113.20 27.56,112.11 27.55,110.64 27.55,109.16 27.57,107.87 27.60,106.59 27.73,104.81 27.86,103.04 27.94,101.96 28.02,100.89 28.07,99.44 28.13,98.00 28.22,96.78 28.32,95.56 28.35,93.78 28.39,92.00 28.37,89.99 28.36,87.97 28.29,85.42 28.23,82.87 28.27,81.21 28.32,79.55 28.24,76.75 28.15,73.95 28.02,71.72 27.90,69.48 27.71,67.54 27.52,65.59 27.33,64.21 27.14,62.82 26.48,60.94 25.82,59.06 25.81,57.60 25.79,56.14 25.75,54.84 25.70,53.55 25.41,51.75 25.13,49.95 24.44,48.10 23.75,46.24 23.69,44.84 23.63,43.43 23.55,42.36 23.47,41.28 22.87,39.88 22.28,38.47 22.37,37.14 22.45,35.81 22.47,33.90 22.48,31.99 22.42,29.67 22.36,27.36 22.24,24.08 22.13,20.80 21.90,16.37 21.67,11.94 21.43,8.37 21.19,4.80 19.75,3.55 18.31,2.31 16.21,1.89 14.10,1.48 11.48,1.51 8.85,1.54 6.72,1.58 4.6,1.63 2.3,1.69 0,1.75 -0.20,1.72 -0.41,1.69 -0.61,1.62 -0.81,1.54 -0.98,1.43 -1.16,1.31 -1.30,1.15 -1.44,0.99 -1.53,0.80 -1.63,0.62 -1.68,0.41 -1.73,0.21 -1.73,-0.00 -1.73,-0.21 -1.68,-0.41 -1.63,-0.62 -1.53,-0.80 -1.44,-0.99 -1.30,-1.15 -1.16,-1.31 -0.98,-1.43 -0.81,-1.55 -0.61,-1.62 -0.41,-1.69 -0.20,-1.72 0.00,-1.75 0.00,-1.75 L 0,-1.75 Z"></path></g><g transform="translate(1519.9999999999998 146.00000000000023) rotate(0 75.63601684570312 22.5)"><text x="0" y="0" font-family="Virgil, Segoe UI Emoji" font-size="36px" fill="#099268" text-anchor="start" style="white-space: pre;" direction="ltr" dominant-baseline="text-before-edge">14 labels</text></g><g transform="translate(1492.3639831542966 327.5000000000002) rotate(0 70.36201477050781 22.5)"><text x="0" y="0" font-family="Virgil, Segoe UI Emoji" font-size="36px" fill="#099268" text-anchor="start" style="white-space: pre;" direction="ltr" dominant-baseline="text-before-edge">5 labels</text></g><g transform="translate(1512.3639831542966 487.5000000000002) rotate(0 76.37401580810547 22.5)"><text x="0" y="0" font-family="Virgil, Segoe UI Emoji" font-size="36px" fill="#099268" text-anchor="start" style="white-space: pre;" direction="ltr" dominant-baseline="text-before-edge">13 labels</text></g><g transform="translate(1514.3639831542966 643.5000000000002) rotate(0 68.99401092529297 22.5)"><text x="0" y="0" font-family="Virgil, Segoe UI Emoji" font-size="36px" fill="#099268" text-anchor="start" style="white-space: pre;" direction="ltr" dominant-baseline="text-before-edge">11 labels</text></g><g transform="translate(1512.3639831542966 833.5000000000002) rotate(0 75.07801818847656 22.5)"><text x="0" y="0" font-family="Virgil, Segoe UI Emoji" font-size="36px" fill="#099268" text-anchor="start" style="white-space: pre;" direction="ltr" dominant-baseline="text-before-edge">19 labels</text></g><g transform="translate(1544.3639831542966 1065.5000000000002) rotate(0 76.93201446533203 22.5)"><text x="0" y="0" font-family="Virgil, Segoe UI Emoji" font-size="36px" fill="#099268" text-anchor="start" style="white-space: pre;" direction="ltr" dominant-baseline="text-before-edge">12 labels</text></g><g stroke-linecap="round" transform="translate(10 298.0000000000002) rotate(0 341.9999999999999 479.9999999999998)"><path d="M32 0 C276.72 -0.99, 519.62 -1.7, 652 0 M32 0 C179.14 2.74, 327.08 2.86, 652 0 M652 0 C672.43 0.34, 684.13 10.71, 684 32 M652 0 C671.32 -1.36, 685.19 10.76, 684 32 M684 32 C684.58 266.28, 684.7 500.38, 684 928 M684 32 C681.74 341.24, 681.85 649.73, 684 928 M684 928 C682.99 950.58, 675.16 960.52, 652 960 M684 928 C684.57 950.9, 675.41 960.05, 652 960 M652 960 C446.77 958.78, 242.35 957.23, 32 960 M652 960 C464.05 961.1, 276.59 961.09, 32 960 M32 960 C9.15 960.66, -1 948.13, 0 928 M32 960 C12.6 960.14, -2.11 947.15, 0 928 M0 928 C-1.99 613.16, -2.66 297.31, 0 32 M0 928 C2.59 693.61, 2.43 459.3, 0 32 M0 32 C0.97 10.52, 10.41 -0.99, 32 0 M0 32 C0.52 8.6, 12.06 0.56, 32 0" stroke="#099268" stroke-width="1" fill="none"></path></g><g transform="translate(40 327.0000000000002) rotate(0 245.53805541992188 45)"><text x="0" y="0" font-family="Virgil, Segoe UI Emoji" font-size="36px" fill="#1e1e1e" text-anchor="start" style="white-space: pre;" direction="ltr" dominant-baseline="text-before-edge">Layer 1:  Super-Class Model</text><text x="0" y="45" font-family="Virgil, Segoe UI Emoji" font-size="36px" fill="#1e1e1e" text-anchor="start" style="white-space: pre;" direction="ltr" dominant-baseline="text-before-edge">Done</text></g><g stroke-linecap="round" transform="translate(517.9999999999999 10) rotate(0 283.99999999999994 333.9999999999999)"><path d="M32 0 C213.06 0.13, 394.99 0.04, 536 0 M32 0 C175.76 -1.06, 318.47 -1.27, 536 0 M536 0 C555.64 -1.01, 567.54 11.44, 568 32 M536 0 C557.96 -1.21, 568.73 9.36, 568 32 M568 32 C569.54 188.29, 568.83 344.36, 568 636 M568 32 C570.34 201.77, 570.65 371.2, 568 636 M568 636 C568.64 657.55, 556.22 667.25, 536 668 M568 636 C567.28 657.55, 556.48 667.39, 536 668 M536 668 C363.63 667.04, 190.86 666.47, 32 668 M536 668 C378.15 666.43, 220.55 666.2, 32 668 M32 668 C11.26 669.86, 1.81 658.79, 0 636 M32 668 C12.77 666.45, 0.05 655.73, 0 636 M0 636 C1.49 512.53, 0.6 389.41, 0 32 M0 636 C-2.41 470.44, -2.43 304.79, 0 32 M0 32 C1.65 11.97, 10.3 -1.69, 32 0 M0 32 C-0.87 11.47, 8.88 -0.02, 32 0" stroke="#846358" stroke-width="1" fill="none"></path></g><g transform="translate(532.4619445800779 29.500000000000227) rotate(0 189.5760498046875 45)"><text x="0" y="0" font-family="Virgil, Segoe UI Emoji" font-size="36px" fill="#1e1e1e" text-anchor="start" style="white-space: pre;" direction="ltr" dominant-baseline="text-before-edge">Layer 2:  Diag Model</text><text x="0" y="45" font-family="Virgil, Segoe UI Emoji" font-size="36px" fill="#1e1e1e" text-anchor="start" style="white-space: pre;" direction="ltr" dominant-baseline="text-before-edge">Done</text></g></svg>